/* XPM */
static char *_3e6706be1904925bda36eebb4887cbbd6lh0I5MWhk1uRs1[] = {
/* columns rows colors chars-per-pixel */
"80 80 173 2 ",
"   c #1F1356",
".  c #1F1459",
"X  c #201457",
"o  c #261957",
"O  c #2B1D57",
"+  c #21155C",
"@  c #25195C",
"#  c #2B1C5C",
"$  c #301F5D",
"%  c #2F215D",
"&  c #332357",
"*  c #382757",
"=  c #3B2A57",
"-  c #32235C",
";  c #39275D",
":  c #37285F",
">  c #3C2A5D",
",  c #231760",
"<  c #251961",
"1  c #2C1D61",
"2  c #2F2060",
"3  c #332362",
"4  c #382763",
"5  c #372860",
"6  c #3B2A63",
"7  c #422E56",
"8  c #422F5C",
"9  c #463156",
"0  c #483257",
"q  c #45315D",
"w  c #4B355B",
"e  c #4E395C",
"r  c #523A56",
"t  c #533B5B",
"y  c #593F5B",
"u  c #412E62",
"i  c #402E68",
"p  c #443264",
"a  c #4A3563",
"s  c #4E3964",
"d  c #453269",
"f  c #4A3768",
"g  c #4D3A69",
"h  c #533D65",
"j  c #583F64",
"k  c #533E6C",
"l  c #4F3C72",
"z  c #503E72",
"x  c #5C425C",
"c  c #62475C",
"v  c #66495E",
"b  c #6A4C58",
"n  c #6E505C",
"m  c #735457",
"M  c #795856",
"N  c #79575E",
"B  c #7A5A5D",
"V  c #574165",
"C  c #5B4264",
"Z  c #56416B",
"A  c #5A446B",
"S  c #5F496D",
"D  c #554270",
"F  c #5B4674",
"G  c #5D4874",
"H  c #634760",
"J  c #6A4D62",
"K  c #614768",
"L  c #644C6C",
"P  c #684C68",
"I  c #6D5163",
"U  c #6B526D",
"Y  c #755764",
"T  c #715669",
"R  c #74596C",
"E  c #614770",
"W  c #644D73",
"Q  c #644F7C",
"!  c #675172",
"~  c #6C5473",
"^  c #6F5873",
"/  c #67517A",
"(  c #6C557C",
")  c #715673",
"_  c #755B75",
"`  c #7A5E73",
"'  c #745C7D",
"]  c #7A5E7C",
"[  c #7F6264",
"{  c #7D606C",
"}  c #7D6074",
"|  c #7D627D",
" . c #856156",
".. c #896456",
"X. c #84635E",
"o. c #8B665B",
"O. c #8E6A5D",
"+. c #936B56",
"@. c #966E5C",
"#. c #986F5E",
"$. c #987056",
"%. c #96705E",
"&. c #9B725C",
"*. c #9E795B",
"=. c #866563",
"-. c #896762",
";. c #8C6A63",
":. c #83646C",
">. c #89676A",
",. c #936D63",
"<. c #916E6B",
"1. c #9B7465",
"2. c #9E7965",
"3. c #94716B",
"4. c #9E776B",
"5. c #9E796B",
"6. c #826471",
"7. c #8B6A70",
"8. c #82667C",
"9. c #85697C",
"0. c #8B6F7B",
"q. c #927274",
"w. c #997571",
"e. c #9F7A75",
"r. c #95757D",
"t. c #9C7A7E",
"y. c #9D7C7E",
"u. c #A07966",
"i. c #A0796F",
"p. c #A07B72",
"a. c #A07E7D",
"s. c #A0807A",
"d. c #675380",
"f. c #6B5682",
"g. c #6E5986",
"h. c #735C85",
"j. c #735E8A",
"k. c #7D6584",
"l. c #7D658C",
"z. c #7B6695",
"x. c #7F6994",
"c. c #7D699B",
"v. c #7B69A1",
"b. c #816680",
"n. c #876C84",
"m. c #8A6E85",
"M. c #846C8B",
"N. c #896E89",
"B. c #8E7188",
"V. c #917485",
"C. c #9E7E81",
"Z. c #9B7B84",
"A. c #957788",
"S. c #836C94",
"D. c #896F94",
"F. c #806A9A",
"G. c #8C7294",
"H. c #84709E",
"J. c #947792",
"K. c #A07D83",
"L. c #8671A2",
"P. c #8D76A0",
"I. c #8574AD",
"U. c #8875A9",
"Y. c #977FA9",
"T. c #8576B5",
"R. c #8D7BB1",
"E. c #8C7CB8",
"W. c #897CBF",
"Q. c #8E7DBF",
"!. c #927FB8",
"~. c #9E808D",
"^. c #9A84B6",
/* pixels */
"                                                                                                              . . . .   . . . . . . . o . . . @ . , + + + + + + ",
"                                                                                                                    . . o   o . . . . . . . . . . . + + + + + + ",
"                                      X                                                                 . . .   .   . o . . . . . . . . . . . . + X + + + + + + ",
"                                  X                                                                     o   . . . . . . . . . o . . , . @ . , . @ + + + + + + + ",
"                                X         X X                                             .         . . . . . . o . . . . . . . % . . . . . . @ X + + X + + + + ",
"                                    X                                           .           .         . . . o . . . . o o . o . . . . . . . , . + X + + X + + + ",
"                                          X X                                   X X   X . X +   . .     . . . . .   . . @ . . . . . . . . @ . , + + + + @ , + , ",
"                                  .   X                             O &         X X     + X X X .   . . . o . . . . . . . . . . . . @ . . . . . + + + + + + + + ",
"X       X   X X                 .                 X X             * r b s X X X X X X X +     .         .       o o   .   . + + . . , , . . . , + + + @ + + , + ",
"      X             o           . . . . o   X X   X               r  .o.!       X X X X X       .       .   % & & % & X + + X + @ . . . . , . < + + + + + + + + ",
"    .   .   . .       o o       .   . o     X X X @ + X . o . % 7 M *.s.| +       + X . X X   . . .     % & 9 e x e q * O + + + , . . , < . . . + + + + , + + + ",
".   . X X X X .               O .     .       . X % % o % 5 % > M $.2.t.| - X X           +       .   % = r S T ~ U S w & X + X . . . . . < < . + + + , + + + , ",
".   X X o     X         o       . o     X X     X 5 Z S ! ^ ^ { %.*.5.C.9.V * X   X         X . .   o = x U | x.x.l.' S = # . . . , . . . @ . . , @ + , , + + + ",
"X X X + X     X       o           X . . +   + + X 5 S 9.Z.~.~.s.2.2.5.s.r.[ c 9 * & X             . % 9 I k.v.T.T.I.c.~ w % + . . . . 2 , . , , + + + + + @ + + ",
"X X + X o o o   o   o       o     X . .   . +   . o 6 _ 0.0.Z.y.4.4.5.e.4.&.+... .m x % X X X       & 0 R S.E.W.W.E.U._ t % . . . , . . . . + @ + < + , + + + + ",
"+ X X +         o       o     o +   + . . . . . .   o f ! } | 0.q.5.5.1.&.&.&.&.%.X.x & X X X +     % x T M.R.Q.Q.E.H._ x & . + . . < , . @ + + + + + + , + + + ",
"X X   X + X + X + X X + + X X X + X . . . . . . . . X # h R } ^ 8.q.3.#.o.X.:.:.:.j ; X + X + X   . % = H ] G.Y.R.P.m.R t $ X X . + . . , + . , . , , . + + + , ",
"+   + X X + + X X + o . X + + X +   . . . . . , . . + . t -.O.-.>.;.,.,.-.:.) K u $ @ + + X X X . . o * t J ] M.N.b.` c 7 # + X , . , + . + < . , . . < , + + + ",
"X X X + X + X + + X + X + + X + X   . . . . . . . . X X x &.$.O.-.=.X.-.>.:.P u + X X X + X + X X X + o * 0 y P I J x 7 # + + + . , , . , @ . , , . < . + + + + ",
"X + + X X X + X . +   + X X + X + . o . . . , . + X X & b $.%.:.` ` :.@.@.@.y X X X X + X X X X X   + + O $ 8 8 w w > $ @ + X + < . . @ + . , . , < . < , , . + ",
"X + X X + + X X . + . + . o . . . + . + < . . . . . @ e B @.>.` ~ ~ ` ,.@.+.y + X X X + X X X X X X + X + X @ @ # # o + X + + + + o + + + + + + . , . , , . , , ",
"+ X + + + X + + + . + + . . . < . . + . . . . @ . X * n [ { ) W j E ) :.-...r + + X X X X + X + . + X + + + X X X X + + + X + + + + . + + + + @ , . , . . < . . ",
"  . + + + + + + . + . . @ . . . @ . + . . + . . + & e [ [ S p 5 - 6 h U >.+.0 + X X + X X + X + X X + X . + X X + X X + + + + + + + + + + + + + . @ , , < < . , ",
"+ .   + + + + X , . @ . @ . . . . . . + . . . , # a ~ n.| h $ X X X # p P X.r + X + X X + X + X + X X + + + + + + + + + o + + + + o + + + + + + < . . , , . . < ",
"+ . + + , . . . @ . . < . . < @ @ . , . . . + @ - A l.U.z.Z - X X X + + a v q X X + X X + X + X + X + X + . X + X + + X + + + + X + + + + + + + . , . , , , . , ",
"+ . + + . . , . . , . . . < . . . . . . + . . @ % V } x.h.h & X X + X + # 8 $ X + X X + X X X + X + X X . . + X + + + X X + X + @ + @ + @ + + + , . , , , , . , ",
"+ , + + . , . 2 . , < . . . , . . . . , . + . + % w C U A 8 $ X X X + X + + X X X + + X X X + X + + X + + + X + + + X + X @ @ + + + @ # - % # + . , , . . , , , ",
". . . + . . , . @ . < . , . . . < < . . . + + + . & > > > $ + X + + X + X + + + + X X + + X X + X X X + X + + X X + + + + + + + X @ & w t h q & , . , , . , . , ",
", . , . @ . , . . , , . , . . 2 . . . . , . . . . . @ # @ X X + + + + X + + . . + X + X X X X + + + X + + X + X X + + + + + + + + - t ) b.k.! a 1 + , , , , . . ",
", . . < , . . , , . . , < . . , . < @ . . , + . @ . + X + + + + X X + + + X + + X + X + + + + + + + + X + X X + + X + X + + + + + 8 I G.^.^.S.L 5 + , + , , . , ",
"+ . , . . , . . . . , . . , . . . , . , . + . . @ + + X + + + + + X + X + X X + X + + X + + + X X + + + + + + + + + + + + + + + + q Y J.^.^.P.~ p + + + , , . , ",
"+ . + + < . . < < @ @ @ < . . < < . , . , . @ 2 5 6 > % + + X + + + + X + + + X + X + + + + X + + X + + + + X + + + @ X + + + @ @ 8 I B.Y.Y.G.! u , . , . , , , ",
", . , . . + + + + # $ $ + + + + + + , + + + @ u l l j ; @ + + + + X + X + + X + X + + X + + X + + + + + + X + + X + + + + + + + @ $ j :.8.8._ j 3 , + , . , . . ",
"+ . + + , + + # ; f k a 3 + + + + + + + + + $ g h.b.f.d # + + + + + + + + + + + + + X + + X + X + + X + + @ + + + @ + + + + + + , @ $ t x j s ; @ + , + , , , , ",
". + + + + + + - s f.h.E u @ + + + + , + + + $ g h.j.( d @ X + + + @ X + + + + + + + + + + X + + + X + + X + + + + X + @ + + + + , + , # $ $ $ + + + , , , . . , ",
", . + + + , + - h z.F./ i , , + , + + + + , @ > Z E j ; + + + + + X + X + + + X + X + + + + + + + + + + + + + + + + + + + + , @ + , + @ @ @ + , , , , + , , , , ",
"+ , + + + + , $ h f.j.G u @ , + + + + , + , + $ ; ; ; $ + + + + + + + + + . + + + X + X + + X + + + + + + + + + + + + + , + , + , + , + , + , , , , + , , , + , ",
". . . + + , + 1 5 a s u 1 + + , , + , , + + + + , @ @ + + + + + + + X + + + + + + X + + + + + + X + + + + + + + + + + + + + + , + , + , + , + + , + , , , + + , ",
", . < , , + , + 1 # 2 # @ , + , , + + + + + + + + + + + + + + + X X + + + X + . + + + X X + + + + + + + + + + + + + + + + + + , , + , + , + + , , , , , , , + , ",
". . . , + , + , + , + , , + , + . + + , + + , + + + + + + + + + @ $ @ + + + + + X + + + + + + + + + @ + + + + + + + + , + , + + + , + , + , , + , + , + , + + + ",
", . . , , . , , , + , + , + + , , + . , + + , + , + + + + + + + $ 4 $ $ + + + + + + + + + + + @ + + + + + + + + , + + , + , + , , + , + , + , @ , . , + , + , , ",
", , , . , , < . + , + , + , , + , . + , + + , , + + + + + + + + $ 4 3 $ + + + + + + + + + + + + + + + + + + + + + + + + + + + + , $ u u i $ @ , , , , , , , , , ",
". , . , , , , . , + , + , @ , @ , + , + + , . + , + , + , + + , $ ; 3 $ + + + + + + + + + + + + + X $ + + + + + + @ , , + + + @ @ u P h.( g $ , , + , , , + , , ",
", . , , , . , < + , + , + , @ 1 + , + + + + , + + , + + + + , + + @ $ + + + + + + + + + + + + + + + + + + + + , $ $ + + + , , @ $ D L.R.U.f.; , + , + , , , , , ",
", . . , . . < , , + , + , 3 i d 4 1 , + + + , + , + + , + + + + + + + + + + + + + + + + + + + + + + + + + + + $ j a + , , + + @ $ k U.!.Q.f.6 , , + , , , , + + ",
". , , , < , , . + , + , 3 d E d.k 3 + + , , + , , . + + + + , , + + , , + + + + + + + + + + + + + + + + + , $ g X.v + , + , + , + i f.F.F.E 4 + + , , , + , , , ",
", . . < + , , , , + , + $ j g.j.E i , , , + , + , , + , + , , + + + + + + , , + + + + + + + + + + + + $ , , i E >.N ; @ + + , + , 1 i l l 4 + + , + . , , , + , ",
". , + + , , , . + , + @ 3 h f.g.F i , , + , + , , , , + , + + , + + + + + + , + + + , + + + + $ + , @ + 1 $ D 6.1.o.w $ , , + , + , + , , + , + , , , , + , , + ",
", . , , , + , + , + , + 2 p Z A a $ , , + , + , + , + , , + , + + + + + + , , , + + + + + + $ i 4 $ $ 4 4 l W 8.1.@.C $ + , , , + , + , + , , , , , , + , , + , ",
", . . , + , + , + , + , @ 2 : : $ , , @ , + , + , + + + + , + , , + , + + + , + , + + + , , $ u C K j k E Q ) 6.#.#.X.h 4 $ 1 , , + , + , + @ + + , , , + , + + ",
", + < . , + , + , + , + + , @ @ , + , + + , + , + , + , , + + , + + + + + , + + + + + + + + , 8 X.>.6.8.6.) ' 6.,.,.6.6.E l i 4 1 , , + @ @ , , , , , + , , + , ",
". . , , + , + , + , + , , + + + + , + , , + , + , + , , @ + , + , , + + , . , + , , + + , + , $ H -.1.<.>.6.6.6.6.6.8.8.b.8.b.b.g 1 @ , , + , + + + , , + , , + ",
", . . , , + , + , + , + + , + , , + , + , + , + + , + , + , , , + , + , + + + + , , + + + + + , ; n #.#.#.>.>.7.6.8.N.B.B.m.A.m.l $ , + , + , + , + , + , , , , ",
". , < . + , + , + , + , , + < + + , + , + , + , , + , + @ + @ + , + , + , , , + + + . , , + + + , 8 J X.>.6.>.w.w.K.K.K.K.m.E i $ @ , , + , + , + , , , , + + + ",
"< . , , , + , + , + , + + < + , , + , + , + , + + , + , , , + , , , + , + + + , + + , , + , + , , $ j 6.>.>.<.e.i.p.a.K.N.E i , + , , , @ , , + , + , + , + + , ",
". , . , + , + , + , + , + + , + + , + , + , + , , + , + , + @ , , , , + + + + + , , + , , + , + , $ l ) 6.#.i.K.i.i.1.<.E $ , , , @ + @ + , + , + , , , , + , + ",
"+ + + + , + , + , + , + , + , + + , + , + , , + , + , , @ $ @ $ + , , + , + , + , + @ + , + , , , 4 E 6.,.&.4.K.K.i.u.-.j $ + , + , @ , @ + , + , , , , . , , , ",
"+ . , + + , + , + , + , + , + , , + , + , + + , + , , , $ ; 4 u $ + + , + , , @ @ + , , , @ @ @ , i 8.<.#.#.<.V.K.K.u.X.y $ , + , @ , + @ , + , . . , . , , , . ",
"+ . + , + , , + , + , + , + , + + , + , + + , + , + @ $ u j E E u 4 @ + @ + , + , , , @ , , , + , g :.#.,.X.H ~ N.K.i.-.x $ + , < + + < , + , + , , , , , , , , ",
"< . + + + + + + + , + , + , + , , + , + + , + , + , 1 $ l b.L.F.E u 1 , , , , @ @ + , + + @ + , , i P v j > 4 4 z ] Z.>.x $ , + + < + + + , @ , . , , . , , . , ",
". . < . + , + , + , + , , + , + + , + + + + + , , + $ ; E S.!.R.b.a $ @ + , + @ , , + , + , + , , $ ; 3 , + , + , d ) 6.j $ , , + , + < , + , + , , , , , . , , ",
", . . , + + + + + + , + + , + , , + , + + , + + + , @ ; K b.D.D.E u @ @ @ , , , @ + @ , , , + + + @ @ , + , + , , 1 4 g s $ @ , , + , + + , + , , . , . , , . , ",
". . , . + , + + + , , , , + , + + , , + , + , + , , @ $ j P ) ) j 4 + + + + + @ @ , @ + + + , + , + , + , + , + , , , $ 4 , , @ < + , @ , + , + , + , , , . , 2 ",
"< . < . + @ + , + + @ + + , + , , + , + , + + + + , @ , $ u w w ; $ , @ + + , , + + , + + , + + + , + , + , + , , , + , @ + , + + , + , + , + , + , + + , , . . ",
". . . . < 2 . , < + + + + < < . < < , . . , . . , . , . < < % % < < , , . , + + < < + + , . , , , , , , . , . < , + , + , + + , + + , , . . , , . , . . , . . , ",
"@ . < . . . , . + . + + . . + . , . , < < , , , . < , . < . + + , . . , , , . < + + + < , , , . , . , . , , . , + , + , + < < + . < < . , , , . , , , , , , , . ",
". < . . . . . , . < + + < . + < . < . , , . , . , < . < . , + < . , . , . . , < % % < < , . . , , , , , , , < . , + < . + , + , < , , , , . , . 2 . , . . . . , ",
". . . < < , . . . < + + . < + + < . . , , . , , , . , . < . , . , , . , , , < 5 f g p : @ , , < . , . , . . , , + , , , , + , + , . . , , , . 2 . , . , . < , . ",
". . . < . . < . + + + + + + + + . , < . < . . < , . , , . . , . , , . , < . : s ^ ' Q f % . , . < . . , < . , , . , , , , , @ , , , , . . . , . @ . , . + + . + ",
". o . . . < < . + + . + o + + + . . . . . < < + , , . . , , . < . , , . . % = ! v.v.v.F : @ . , . , , , . , . , , , , . . . , , . . , 2 , , . , . , . , + , . + ",
". . . . . @ . . o + + o . . + + + . < < , + + + . , . , . , < . , . . < . % : ! x.H.v.F : @ . . , , , . , , , . . , , . , , . , , . , . , . , . , . . @ + . . + ",
"@ . . . o . . @ . + . . . < + + + + . . . + < . < . < . , . , , , . , . < . : V ^ ^ ! V % . , , , . . , . . , < @ , , , , . , , , , . < . < . , . < . . + , . + ",
".   . o . . . + + @ . . . @ . + . < . < . < . < . . < . . . < . < . . . < . % : s e f : < . . < . . , . + , + + + + , + , , . . . . , . . @ . . , @ . , + . . + ",
". . . . . . . o . . . @ . @ + + . . . . . . . . . < . . < . < . . . < . < . . % % % % < < < . . 2 , . , @ + + , + , @ + . , , @ . , . < + + . @ . . . . + + + + ",
". o . . o + o . o . . . . . o . o . < . o < . . . . < < . < . . . < . . . . . < o o < . < . < . , . , , + + + + . < . + . @ @ . < . . < + + + + + + < . + + . + ",
"      . . . . . @ . . . . @ . . . < o . . . < o < . . . . . . < . o < < . < < . . . . . < . . . . , . . + @ . + @ . . @ , . . , . < . . + . + + . + + . + . . + ",
"            . . . . . o   . o . . o . . . . < . < o . < o . . < . . . . < o < . < < . . . . < < < . . @ . . @ . . . . @ . , @ . . < . , . . + + + + + + X . . + ",
"              . . . . . . . . . . . . . . . . . . . . . . < . . < . < . . . . . . . . < < . . . < . @ . @ . . @ . @ @ . @ . , . . . @ . . < + + + + + . . +   + ",
"                  . .   . . . . . . . . . . . . . . . . . . . . . . . . . . . < . < . . . . . . . . . . . . . . . . . . . . @ . . @ . . . . + . . . . . + +     ",
"              . . . o   . . . . . . . . . . < . . . . < . o . . . . . < . . . . . . . . . o . < . @ . @ . @ . . @ . . @ . . . . . . . , + . + . . + . +   X   X "
};
