/* XPM */
static char *d4ff76f1f7444b67c5d0c03197f5c428fnOasg1Fc0Mz5AYY[] = {
/* columns rows colors chars-per-pixel */
"80 80 69 1 ",
"  c #1D124F",
". c #1F1355",
"X c #1F1458",
"o c #201456",
"O c #251A55",
"+ c #291E56",
"@ c #21155B",
"# c #261A5A",
"$ c #291E5A",
"% c #2D2255",
"& c #2C225A",
"* c #312756",
"= c #342B55",
"- c #362C56",
"; c #372E56",
": c #372F57",
"> c #382F53",
", c #31265A",
"< c #332A59",
"1 c #382E59",
"2 c #383052",
"3 c #3A3352",
"4 c #3E3752",
"5 c #3F3752",
"6 c #3D3556",
"7 c #3C3358",
"8 c #403755",
"9 c #403853",
"0 c #413953",
"q c #423B52",
"w c #423A53",
"e c #453F50",
"r c #453D53",
"t c #423C54",
"y c #433D54",
"u c #463F54",
"i c #403758",
"p c #433B58",
"a c #46414F",
"s c #4F4B4F",
"d c #56524F",
"f c #57524F",
"g c #5A564F",
"h c #5B574F",
"j c #474056",
"k c #4B4352",
"l c #4B4551",
"z c #4B4753",
"x c #4B4556",
"c c #4E4850",
"v c #4F4B53",
"b c #4F4855",
"n c #534E50",
"m c #544F50",
"M c #565350",
"N c #565052",
"B c #565254",
"V c #595451",
"C c #5A5554",
"Z c #5C5850",
"A c #635F4F",
"S c #605C51",
"D c #65624F",
"F c #67644F",
"G c #72724D",
"H c #77764D",
"J c #626052",
"K c #656252",
"L c #6C6A51",
/* pixels */
"..  ..    . ... o o o o ooo ......... .......  XXXXXX XXXXXXX@X@@XXX#XXX@#XX#@@X",
"  .    ..  ..  .. .o o o  .  . .. . .. ..  . . XX X XXX.XXX.XX.XXXXXXXOXXXX#XXX@",
"  . .. .......... ..oo  .oo .................X XX.X.XXXX X...o@@@@@@XX#XXXXX@@@@",
". o    .... .. .. .. ooo. . .. .. . .. .. ...XX ..X  X .X.XX.@.o@@@@XXXX:<##X#X@",
" . ........  .... . .o .o o o. .. .. .... . ..... X XXXXXXo..oXo@@@@@&#&t:#XXXX@",
"...... ...............o..o o............. ......XXXX XXXoooooo@o@@@@&bbjMt$XXX@@",
" . .. .. ..... . .o .  .. oo . .. .... .......... X X X.XXXXXXXo@@@@#bBJvt:+$XX@",
".o...............oo.oo o.o. oo..........O...ooooXXXXXXX.o.@X@@oo@@@@&bJLzzj<&@@@",
"..........o......... .ooo  %%.......ooooo ooo.ooX.XX.X.XoOooO@o@@@@@<KJKpp<&&@@@",
"..........oo........ . oOO%2%.....X.o...o.ooo  .....O.X.XX.XXoo@@@@@&pbbBp,&@@@@",
".......o.o.o.X......X@oO22443o O.......ooOOooooo.XX..X.oXXoO$Oo@@@@&&,<7Kp@@@@@@",
".......o.o@o....OO+...oomsljal3*X...o...%OOOOoooO.....XoXXoOXoo@@@@@@@@@7,@@@@@&",
"....oo.ooo+o....OO+O.o..hddcss3%...ooooo%OO+O oo.......ooooo.@Xo@@@@@@@@@&@@@@@@",
"..XXoo.ooo+o.X.XX..oooookhGDh9%o.X@@.ooo=%%*%o oX..X.%%%@ooXXoX@@@@@@@&@@@@@@@@@",
".XXX OO+oooo@..X.Xoo...oqemhd*OoX.X.o.ooO %OOo oX.X.X%%%oooXX@X@@@@@@@@@@@@@@@@&",
"oooXo++%oo@....Xooo..ooo499hnOooX...o.o.OOO ooooXooXoO%=oooooo@X@@$@@@@@@@@@@@@@",
"ooo..o+%OO@oooO+OoXXXXXXXXooOoXXXo..@..@oooo@oooooooo@oooooXX@X@@@@@@@@@@&@@@@@@",
"@Xo.o@O$OooooooOOoXXXX.XX.ooOoXXX... o..@o@oooooo.ooooooooXXX@o@@@@@@@@@@@@@@@@@",
"@@@@@O+,*%ooooo#@oXXX@ooXX@.oXX.XX.@@@@.oo@oooooooooooo@@o@Xo@o@@@@@@@@@@@@@@@&@",
"X.ooo@oOoXXXXoooooXXXoooX...XXXXX.oo....oooooooooXXXo@oo@oXXoXo@@@@@@@@@@@@@@@@@",
"@o@oooo#XXXXXXXX@o@.XXX@@.@..XXoX.X.oo.@oooooooooXoooooooooo@@o@@@@@@@@@@@@@@@@@",
"o@oooo@o@X@O&@X@@ooXo@@X.@.@@@@o@..@..oooo.oooO+oooo@ooo@o@oo@o@@@@@@@@@&@@@&@@@",
"@o@Xo@o@X@X#OXXXXX.@.o.@..@..@o@..@@o@@..ooooo8r,%%oo@ooo@o@@..@@@@$,&@@@@@@@@@@",
"@o@o@@o@@XXO#XXXoX@X@X@X@@.o@.oo@@...o.@..ooo+eD6;=O#@o@o@@@@@@@@@@,,<&@@@@@@@@@",
"@@@@@X@@X@@XX@XX@X@X@Xo@XXoooooo...oooo@@oo#+rSFHDl$o@o@@o@@o@@@@@&&&@,&@@@@@@@@",
"oo@oX@X@#XXX@XX@X@@XoXXo@XoXoooo.o@.ooooooo#%rrZFSN+oooo@@o@@o@o@@@,&&@&@@@@@@@@",
"@@@@#@X@@X@@@X@@X@@XX@@XX@oX@o@#@o@.o@o@@oo,8uuumNZ$@oo@@o@@ooo@@@@,,,@@@@&@@@@@",
"@o@oX@X@@@@XX@XX@X@XX@X@@X@Xo*+%oo.@..oooooooO8rwwr#oo@@@@@.ooo@@@@&@@@@@@@@@@@@",
"@oXXXOX#@@XXX@@@X@@..oo@XXo@o,+$oo@o@.@.oooooo*8>>8#o@ooo@@o@@o@@@@@@@@@@@@@@@@@",
"@@O@@X@@@@@@@@@@@@$@@@@@@@@#@###@o@oo@.@oo@ooo,8o@@o@@@@@o@o@@@@@@@@@@@&&@@@@@@@",
"@@@@XXX@@X@@@@@@@@$@o@@o@o#@oo@o@o@oo.@@oo@oo@#$ooooo@o@oo@@o@@@@@@@@@@@@@@@@&@@",
"@@@@#@@@@@@@@@@@@#,@@@@@o@oo@#o@o@o@@@@.@oooo@@o@o@@@@o@@@@@@@@@@@@@@@@@@@@@@@@@",
"@@@@@@@@@@@$@@@@@@@@@@@@@@@@@@@@@o@o@@@@@oooo@o@@@@@@@@@@@@@@@@@@$@@@@@$@@@@@@@@",
"@@@@@@$,,,1,,@@@@@@@@@@@@@@@@@@@o@@oo@@.@@o@oo.@oo@oo@o@@o@@@@@@@@@@@@@@@@@@@@@@",
"@@@@@@,ppBKp,@@@@@@,$@@@@@@@@@,,$$@@@@@@@@@@o@@@@@@@@@@@@#o@@@@@@@@@@@@@@@@@@@@@",
"@@@@@@1pKKpi,@@@@@@@@@@@@@@###@,;$oo.@..oo@oo@o@@oooo@@@@o@o@@@@@@@@@@@@@@@@@@@@",
"@@@@@@,pLKbp1@@@@@@@@@@@@@@,,,$,=%@oX@@@oo@oooo@@.o@@@@@@@@@@@@@@@@@@@@@@@@@@@&@",
"@@@@@,pKKCppp1,@@@@@@@@@@@@,ibppi%@@@@@@@@@@@##+@@@@@@@@@@@@@@@@@@@@@@@@@$$@@@@@",
"@@@@@@,iBpB,,,@@@@@@@@@@@@@1pCBp8,o@ooo@@o@oo%+##o@oo@@@@@####@@@@@@@@@@@@@@@@@@",
"@@@@@@@,ppB,@,@@@@@@@@@@@@@1pLCbu8#@@@@@@o@@o,$$&#@@@@@@@@#$$#@@@@@@@@@@@@@@@@@@",
"@@@@@@@@@,,@@@@@@@@@@@@@@@,pKLKKVu8#@@@@@@@@@,,$,$#@@#@@@#$$,,@@@,&@@@@@@@@@@@@@",
"@@@@@@@$@,,@@@@@@@@@@@@@@@,1pBBC8i,@@@@@@@@@@##$$#@@@@@@@@#$$$@@@@&@@@@@@@@@@@@$",
"@@@@@@@@@@@@@@@@#$,@@@@@@@@@@1pp@@@@@@@@@@@@@@@@#@@@@@@@@@@#$@@@@@,@@@@@@@&@@@@@",
"@@@@@@@@@@@@@@@@@@@@@@@@@@@@@@,,@@@@@@@@@@@@@@@@@@@@@#@@@@@@@@@@@@@@@@@@@@@@@@@@",
"@@@@@@@@@@@@@@@@@@@@@@@@@@@@@@@,@o@@@@@@@@@@X@@@@@#@@@@@@@@@@@@@@@@@@@@@@@@@@@@@",
"@@@@@@@@@@@@@@@@@@@@@@@@@@@@@@@@@@@@@@@@@@@@@@@@@@#@@@@@@@@@@@@@@@@@@@$@@@@@@@@@",
"@@@@@@@@@@@@@@@@@@@@@@@@@@@@@@@@@@@@@@@@@@@@@@@@@@#@@@@@@#@@@@@@&@@@@@@@@@$@@@@@",
"@@@@@@@@@@@@@@@@@@@@@@@@@@@@@@@@@@@@@@@@@@@@@@@@#@@@@@@@@@###@@@@@@@@@@@@@@@@@@@",
"@@@@@@@@@@@@@@@@@@@@@@@@@@@@@@@@@@@@@@@@@@@@@@@@@@@@#@@@@@@@@@@#@@@@@@@@@@@@@@@@",
"$@@@@@@@@@@@@@@@@@@@@@@@@@@@@@@@@@@@@@@@@@@@@@@@@@@@@@@@@@@@@@@@@@@@@@@@@&,@@@@@",
"@@@@@@@@@@@@@@@@@@@@@@@@@$@@$@@@@@@@@@@@@@@@@@@@@@@@@@@@@##@@@#@@$@@&@@@@1p,@@@@",
"@@@@@@@@@@@,@,$@@@@@@$@@@@@@@@@@@@@@@@@@@@@@@@@@@@@@@#@@@@@@@@@@@@@@@@1pBBKpp,$@",
"@@@@@@@@@@@@@,@@@@@@@@@@@@@@@$@@@@@@@@@@@@@@@@@@@@@@@@@@#@#@@#@@@@@@@@,pKKKpp7@@",
"@@@@@@@,,@@@@$@@@@$@@$@@@@@@@@@$@@@@@,,@@@@@@@,,$@@@@@$,,,@@@##@$@@@@@,,KKCBpp,@",
"@@@@@@@,@@@@@@@@@@@@@@@@@@,@@$@@@@@@@$@@@@@@@@@,@@@@@@#,$@@@@@@@@@@@@@@,KBppp$@@",
"@@@@@,,,,$@@@@@@@@@@@@@@$@,@@@@@$@@@@@@@@@@@@@@,$@@@@@@$#@@@@@@@@@@@@@&,VBpp7@@@",
"@$@@@@@@@@@@@@@@@@@$@@@@$1pi,@@@@@@@$@@$@@@$$$$@$@@@@@@$@@@@@@@@@@@@@@&,<,#77@#@",
"@@@@@@@@@@@@@@@@@@@@@@@,1pCpp,,$@@@@@@@@$@$$@$@@@@@@@@@@@@@@@@@@@#@@@#@,,$@&&@@@",
"@@@@@@@@@@@@@@@@@@@@@@,1BCKLKB1,$@$@@@@@@@@@@$@@@@@@@@@@@@#@@@##@#@@#@@@@@@@@@@@",
"@@@@@@@@@@@@@,@@@@@@@@,,bpbKCp,@@@@$$,$@@$@$@@@@@@@@@@@@,$,@@@#@@@@@@@@@@@@@@@@@",
"@@@@@@@@@@@@,@@@@@@@@@@$pppKV1,@$@@$$,@@$@@@@@@@@@@@@@$@$,,@@@@@@@@@@@@@@@@@@@@@",
"@@@@@@@@@@,&,,&@@@@@@@@$ppbpp,$@@@@@@@@@@@@@@$@@@@@@@@@@@@$$@@@@@@@@@@@@@@@@@@@#",
"@@@@@@@@@@&&&,@@@@@@@@@@1,11,,$@@@$@@@@@@@@@@@@@@@@@@@@@@@@@@@@##@@@@@@@@@@@@@@@",
"@@@@@@@@@@&@&,@@@@@@@@@@,,@$$,@@@@@@@@@@@@$@@@@@@@$@@@@$$@@@@@@@#@@@@@@@@@@@@@@@",
"@@@@@@@@#@@###@@@@@@@@@@@@@@@@@@@@@@@@##&#@,,@@@@@@@@@&&&#@@@@@@@@@#@@@@#@@@@@@@",
"@@@@@@@@X@@X@X@@@@@@@@@@@@@@@@@@@@@@@@##7<,<,@@@@@@@@@#$##@@@@@@@@@@@@@@#@@@@@@@",
"@@@@@@@@@X@X@#@@@@@@@@@@@@@@@#@@@@@@@@#$Cbpp1@@@@@@@@@@@@@@@@@@@@@@@@@@@@@@@@@@@",
"@@@@@@@@@X@XX@@@@@@@X#&&@@@###@@@@@@@@&1KCbpp#@@@@@@@@@@@@@@@@@@@@@@@@@&@@@X@@@$",
"@@@@@@@@@X@@X@@@@@@X@&&&@@@###@@@@@@X@<tKCBjp&@@@@@@@@@@@@@@@@@@@@@@@@@&@X@XXXX$",
"@@@@@@@@@X@X@@X@@@@@@&<;@@@@@@@@@@@@@&pvLKKCBp&@@@@@@@@@###@@@@@@@@&&@###X@@@##&",
"@@@@@@@@X@XO@XXX@@@@X###@@@@@@@@@@@@@#&<xxB7<$@@@@@@@@@@$$@@@@@@@@@&&@@@#X#XX@@#",
"@@@@@@@@XXX@@@#X@@@@@@X@@@@@@@@@@@@@@X@@<7p$@@@@@@@@@@@@&&&@@@@@@@@&&@@@@@X@X@@@",
"@@@@.XXXXXXXOXXX@XX@X@X@@@@@@@@@@@@@@@@@@#&@@@@@@@@@@@@@@@@@@@X@@@@@@@@@@@@@#XX@",
"@@@@XXXXXXXXXXXXX@X@X@X@@@@@@@@@@@@X@@@@@@#@@@@@@@@@@@@@@@@@@@@X@@@@@@XX@X@@#XXX",
"@@@@XXXXXXXXXXXX@XXX@@XX@@@@@@@@@X#X@@@#@@@@@@#@@@@@@@@@@@@@@@@@@@@@@@@@@@@#&XXX",
"@@@@...XXXXXXXXO#XXXXX#X@@@@@@@@@X@XX@@X@@@X@@X#@@@@@@@@@@@@X@@@@@@@@@@@X@@XO@XX",
"@@ XX  XX....X.XXXXXXXX#X@XX@@X@XX@XX@@#@@XXXXXX@@@@@@@@@@@@@@XX@@@@@@@@XXXXX@XX",
"@@XXXXXXXX...XXXXXXXXXXX@X@@@@XX#X@XXX@#X@@@#XXX@@@@@@@@@@@@@@X@@@@@@@@@XXXXX@XX",
"@XXX  XXXX...XX.XXXXXXXXXX@XXXX@XXXXXXXXXXXXXXXX@@@@@@@@@@@@X@XX@@@@@@@@XX@XXXXX",
"@@XXXX X XX.XXXXXXXXXXX@XXX@X@XXXX#XXXXXXXXXXXXX@@@@@@@@@@@@@XXX@@@@@@@@XXXXXXXX"
};
