/* XPM */
static char *_4615db442154af8a24da0e5c2deb202CwK3pjUdaXSIDsoD[] = {
/* columns rows colors chars-per-pixel */
"50 50 111 2 ",
"   c #2B1B76",
".  c #2D1C7D",
"X  c #311E7E",
"o  c #34227C",
"O  c #39257C",
"+  c #3E297D",
"@  c #442E7D",
"#  c #4A327D",
"$  c #573C7D",
"%  c #5F437B",
"&  c #65477E",
"*  c #67497E",
"=  c #71517F",
"-  c #88637E",
";  c #976C7E",
":  c #9A707A",
">  c #A2757C",
",  c #A6797E",
"<  c #A97A7C",
"1  c #2E1D82",
"2  c #301D83",
"3  c #342182",
"4  c #3A2683",
"5  c #3D2983",
"6  c #3E2A89",
"7  c #432D82",
"8  c #442E8A",
"9  c #473183",
"0  c #4A3484",
"q  c #45308A",
"w  c #4C358A",
"e  c #543A85",
"r  c #50378A",
"t  c #533A8B",
"y  c #583E89",
"u  c #5E4281",
"i  c #5A418F",
"p  c #5B4292",
"a  c #674A84",
"s  c #61468B",
"d  c #64498D",
"f  c #6C4E8C",
"g  c #6E5089",
"h  c #745384",
"j  c #795583",
"k  c #73538A",
"l  c #77588E",
"z  c #604692",
"x  c #644A95",
"c  c #694E90",
"v  c #694F9A",
"b  c #6E5195",
"n  c #6D5299",
"m  c #755793",
"M  c #765896",
"N  c #7C5D95",
"B  c #77589D",
"V  c #7B5D9B",
"C  c #795DA2",
"Z  c #735AA8",
"A  c #7B60A7",
"S  c #835F8B",
"D  c #8B658B",
"F  c #8C6A8F",
"G  c #976F87",
"H  c #936D89",
"J  c #986E89",
"K  c #9C7383",
"L  c #97718F",
"P  c #9E748C",
"I  c #836394",
"U  c #8A6691",
"Y  c #8F6B95",
"T  c #84649B",
"R  c #896699",
"E  c #8B6B9C",
"W  c #93719A",
"Q  c #A57884",
"!  c #AB7D84",
"~  c #A37A8E",
"^  c #AC7F8A",
"/  c #A67C95",
"(  c #8264A4",
")  c #8C6CA2",
"_  c #8063AC",
"`  c #8A6EAC",
"'  c #9472A5",
"]  c #9A7AA3",
"[  c #9977A9",
"{  c #8267B2",
"}  c #866BB8",
"|  c #A17FA5",
" . c #8D73C1",
".. c #947AC2",
"X. c #947CCE",
"o. c #8F7AD2",
"O. c #AA808F",
"+. c #AB8192",
"@. c #AD829A",
"#. c #A482A7",
"$. c #AD85A6",
"%. c #A582AD",
"&. c #A987A9",
"*. c #AD88B1",
"=. c #9D82CE",
"-. c #9880D2",
";. c #9F87DD",
":. c #A58AD9",
">. c #A88CDB",
",. c #9784E2",
"<. c #A089E5",
/* pixels */
"                                                        .     . .   .   . . . . . . . . . . . . . 1 ",
"                                                .         . .     .   .   . . .   . . X . 1 3 . 1 . ",
"                  1                                       .   . . . . . . . .   . . . . . . . 1 . . ",
"                        1   1         1             . . .   .   .   .     . . . X . . . 1 o . . o 1 ",
"                  1   1 .     .       .     o   .   .       . . .   .   . . . . . . . . . . 1 . 1 . ",
".   .                       .   1     .   & g . . .   . . . .   . . . o . . . . . . 1 . . 3 . . . 1 ",
"          . . . 1       .     .   .   . @ > #..   .   .   .   .   o # $ @ o . . . . . . . . 1 1 3 . ",
"  . .   .   .       1   . .   . 2 4 q 0 : ! #.7 .   .   . .   . # * N V g # . . . 1 1 . 1 1 1 . o 1 ",
". . .   . . . . . . . . . . . . d ] &.&.! ^ $.S %       .   . O & ` o.o.A u o 1 . . . . . 1 1 . 1 3 ",
".     . . .   .   . . .   .   . o N E #.+./ ^ < , : h   . .   + = =.;.,...g o . 1 . 1 . 1 . 1 1 1 . ",
". . . . . . . .   .   . . . . .   9 I N W ~ : H F l 9 . . . . O * ) -.=.' a X . . 1 . 1 . 1 1 3 1 . ",
". . . . . . . . . . . . . . . . . o , , H K J U z . . . . . . . # * N I h @ . . 1 . 1 . 1 . . 1 1 1 ",
". . . . . . . . . . . . . . . . . $ , F I I Q > O . . .   . . . X + @ # + 3 . . . 1 . 1 . 1 X 1 1 1 ",
". . . . . . . . 1 . . . . 1 1 . o - F N c I J ; X . . . 1 . . . . . . 1 . . 1 3 1 o 1 . 3 1 1 1 1 3 ",
". . 1 . 2 2 . . . . 1 1 1 . 1 X s W d o . 7 k G . . . . . . 1 . . . . 1 . 1 1 . 3 . 1 . 1 . 1 1 1 1 ",
". 1 . . . . . 1 1 . . . . . . @ ( X.d . . X 2 h . . . . 1 1 . . 1 . . . 1 . . 1 . . 1 1 1 . 1 1 1 1 ",
". 1 1 . . 1 1 1 1 . 1 . . . 1 + k N e X 1 . . . 1 . . 1 . . . 1 . 2 . . 2 . . 2 X X X O . 3 1 1 1 1 ",
"1 o . 1 1 1 . . 1 1 1 . 1 1 . 1 + 7 3 . . . 1 . 1 . . . . 1 . . 1 . . 2 . 1 1 . X 0 f f 9 1 1 . 1 1 ",
". 1 1 . . 1 1 1 . 1 1 1 . 1 1 . . 2 . 2 . 1 . 1 . 1 . 1 1 . 1 . . 1 X . 1 . 1 1 4 S :.=.g 3 1 . 1 1 ",
"1 . . . 1 1 X 1 . 1 . 1 1 1 . 5 4 X 1 . 1 . 1 . 1 . 1 . . 1 . 1 . 1 1 1 . 2 1 1 7 D >.:.M 5 1 1 1 1 ",
". 1 1 1 X 3 9 + 1 . 1 1 1 1 5 n b @ 1 . 1 1 . 1 1 1 1 . 1 . 1 . . 2 . . 1 . . 1 2 & U T y 2 2 1 1 1 ",
"1 . . 1 1 u A p 4 1 1 1 1 1 9 { _ 7 1 . . 1 1 1 . . 1 1 . 1 1 1 . 2 2 2 1 2 1 1 2 4 7 7 2 X 1 1 1 1 ",
". 1 1 1 1 p  .n 3 1 1 1 1 1 4 y y 2 2 1 1 1 1 1 1 1 1 . 1 1 . 1 . 2 1 2 X 1 1 2 2 . 2 1 2 2 2 1 1 1 ",
"1 X 1 1 1 + i 9 1 1 1 1 1 1 1 2 2 X X 2 1 1 1 . 1 1 1 . 1 1 . 1 1 . 2 . 2 1 1 1 1 2 2 1 2 2 2 1 1 1 ",
"3 . 1 1 1 1 1 1 2 2 2 1 1 1 2 2 2 1 2 2 2 2 1 1 1 1 1 1 1 1 1 1 . 1 1 1 1 1 1 2 1 1 3 3 1 2 2 1 1 1 ",
"1 1 1 1 1 1 2 1 2 2 1 1 1 1 2 2 2 2 2 2 6 2 2 1 1 1 1 1 1 1 1 1 1 1 1 1 2 1 1 2 1 3 3 1 1 1 1 1 1 1 ",
"1 1 1 1 1 1 2 2 2 2 2 2 1 1 2 2 1 1 2 2 6 6 2 1 1 1 1 1 1 1 1 . 1 1 . 1 1 1 1 1 6 B A 6 2 2 1 2 1 1 ",
"1 1 1 1 2 2 1 2 2 8 2 2 1 1 2 2 2 2 2 2 2 2 1 1 1 1 1 1 1 1 1 1 1 1 1 u 1 2 2 1 i ;.<.v 2 2 1 2 1 1 ",
"1 1 1 1 1 1 2 1 r Z x 6 2 2 1 2 1 1 1 2 2 2 2 1 1 1 2 2 1 1 1 1 1 1 i D 2 2 2 1 o Z A p 2 2 2 2 2 1 ",
"1 1 2 2 2 1 1 1 t } v 2 2 2 2 2 1 2 1 1 1 1 1 1 1 1 1 2 1 1 1 1 1 5 V O.i 1 1 2 1 1 4 1 2 1 2 2 2 1 ",
"1 1 1 1 2 1 1 2 6 t 2 2 1 2 2 2 2 2 2 1 1 1 1 1 2 1 2 2 2 r 6 8 i b T , g 1 2 2 1 1 1 1 2 2 2 2 2 1 ",
"1 1 2 1 1 1 2 2 2 2 2 1 2 1 2 2 2 2 2 1 1 1 2 1 1 1 2 2 2 7 J R E V R O.F C x 6 3 1 1 1 2 2 2 2 1 2 ",
"1 1 1 1 1 1 1 1 1 1 1 1 2 1 2 2 1 1 1 3 1 1 1 1 2 1 1 1 1 1 c ! K L W E ' ' [ | 8 2 2 2 1 1 2 2 1 1 ",
"1 1 1 1 1 3 1 1 1 2 2 2 1 2 2 2 3 1 3 1 1 1 2 1 2 2 1 1 1 2 2 m L Y / @.*.*.( 6 2 2 2 2 2 1 2 2 1 1 ",
"1 3 1 1 1 1 1 1 2 1 1 2 1 1 2 2 1 1 1 1 1 1 1 2 2 2 1 2 2 1 1 x R Q $.O.^ T 3 2 1 2 2 2 2 1 2 2 1 1 ",
"1 1 1 1 1 1 1 1 1 1 1 2 1 2 1 2 1 1 6 + 3 1 2 2 2 2 2 2 2 2 2 A P O.$.$.^ k 2 1 2 2 2 2 2 1 1 2 1 1 ",
"1 1 1 1 1 1 1 1 1 1 1 1 1 1 2 2 1 q c N w 6 1 1 2 2 2 2 2 2 6 ` Q = b %.@.j 2 1 1 2 2 1 2 1 2 2 1 1 ",
"1 1 1 1 1 1 1 1 1 1 1 1 1 2 2 1 o y  .,.Z 6 1 3 2 2 2 2 2 2 2 q 5 3 1 q ' k 1 1 1 1 1 1 2 1 2 1 1 1 ",
"1 1 1 1 1 . 1 1 1 1 1 1 1 1 1 2 1 0 F ..v 4 1 1 2 2 2 2 2 2 2 2 2 1 1 2 4 y 2 2 1 1 2 2 2 1 1 1 1 1 ",
". . 1 . 1 1 1 1 1 1 1 1 1 1 2 1 o o 0 y q 1 1 1 2 2 2 2 2 2 2 2 1 2 2 1 2 1 1 1 1 1 1 1 1 1 1 2 1 . ",
"  1 1 1 1 1 1 1 1 1 1 1 1 1 1 1 . . 3 3 1 1 1 1 1 . 1 1 1 1 1 1 1 1 1 1 1 1 1 1 1 1 2 1 1 1 1 1 1 1 ",
"1 1   1 1 1 1 1 1 1 1 1 1 1 1 1 1 1 1 1 1 1 1 1 3 5 6 . 1 1 1 1 1 1 1 1 1 1 1 1 1 1 1 2 1 1 1 1 1 1 ",
"  1   1   1 1   1 1 1 1 1 1 1 1 1 1 1 1 1 1 1 3 t Z Z 6 1 1 1 1 1 1 1 1 1 1 1 1 1 1 1 2 1 . 1 1 1 . ",
"  1 1 1   1 1 1 1 1 1 1 1 1 1 1 1 1 1 . 1 1 1 3 * o.o.w 1 1 1 1 1 1 1 1 1 1 1 1 1 1 1 2 1 1 1 1 1 . ",
"1 1 1   1 1 1 1 1 1 1 1 1 1 1 1 1 . 1 1 1 1 1 3 u N m 0 . 1 1 1 1 1 1 1 1 1 1 1 1 1 . 1 . 1 . 1 . 1 ",
"      1   1   1 1   1 1 1 1 1 1 1 . 1 1 . 1 . 1 o 0 q o 1 1 1 1 1 1 1 1 1 1 1 . . 1 1 1 1 . 1 . 1 . ",
"1   1   1   1 1   1 1   1 1 1 1 1 1 1 1 1 1 . 1 1 1   . 1 1 . 1 1 1 1 1 . 1 1 1 1 1 1 . . 1 . . 1 . ",
"    1     1     1   1 1 1 1 1 1 . 1 . 1 1 1 1 1 . . . . . 1 1 1 1 1 1 1 1 1 . 1 . . . 1 . . 1 . . . ",
"      1     1     1 1   1     1 1 1 1 1   1   1 . . . 1 . 1 . 1 1 1 . 1 . . 1 . 1 1   1 1     1   . ",
"      1   1   1   1   1 1 1 1   1     1 1 1   1 . . . . 1 . 1 1 1 1 1 . 1 . . 1 . . 1     1 1 1 . . "
};
