/* XPM */
static char *_60c0e9ddc5f4fdbdc27c8904bb74e56mhPJxGvnv3edLB5Y[] = {
/* columns rows colors chars-per-pixel */
"80 80 32 1 ",
"  c None",
". c #444444",
"X c gray27",
"o c #464646",
"O c gray28",
"+ c #484848",
"@ c #494949",
"# c gray29",
"$ c #4B4B4B",
"% c #4C4C4C",
"& c gray30",
"* c #4E4E4E",
"= c gray31",
"- c #505050",
"; c #515151",
": c gray32",
"> c #535353",
", c gray33",
"< c #555555",
"1 c #565656",
"2 c gray34",
"3 c #585858",
"4 c gray35",
"5 c #5A5A5A",
"6 c #5B5B5B",
"7 c gray36",
"8 c #5D5D5D",
"9 c gray37",
"0 c #5F5F5F",
"q c #606060",
"w c gray38",
"e c #626262",
/* pixels */
"                                                                                ",
"                                                                                ",
"                                                                                ",
"                                                                                ",
"                                                                                ",
"                            4444114                                             ",
"                        44144444404044400444141111111                           ",
"                        144444444444004444141111141111                          ",
"                        14404044040044040414111111144111                        ",
"                       14444440000040414--==11-1111111-11                       ",
"                      4444440440000411--##o#1----111111111                      ",
"                      404004000000401-==####---=-1111411111-                    ",
"                      440040000000004===#=oo#===-111111111111                   ",
"                     40040000040q0041=#=###oo=#=--111141111-1-                  ",
"                     4044004qqqqqqq01=#####o#===---114111111-11                 ",
"                     4400000qqeqqq001==##oo##=#=--111111111111---               ",
"                    4000qqqqqqeeqq004-==o###===--11-1111111111----              ",
"                    0440qqqqqeeeeq0041--==#==---11144441111-1-1----             ",
"                  400400qqeqeeeeqqq444-1==--=--1-11441411111-1----==-           ",
"                 4044000qqqeeeeeqqqq444------11114114144111-----====--          ",
"                 4000000qqqeeqq0qqq0404111-111114414444111=#====#======         ",
"               4404400qq0qqeqqq0qqq0044414444444444141111##ooo#o##======        ",
"              40000000000q00qq00000000440440444444444411-=##ooooo=#=#=##=       ",
"             0004000000001004000000004044444444444441141-=o#ooooo#=#=====       ",
"           40044000004004-1-444000044404404444444444411--=#oo.o.oo##===#=       ",
"          0040000000001-===--144444000400444404444411411-##o.ooo.##==#=##       ",
"        44404000004001-==#=#==--44440404044444444444111-=#oo.o.ooo###=###       ",
"        4404004404000-=######=-=11444044444444414441411==##oo.o.oo=##=#==       ",
"       40404040040041-=#####o#==-144440444441444111441-==#oo.o.o.o######=       ",
"       4044040400441--=##oooo###-141444444411111141111-=##ooo.o.ooo##=###       ",
"       4404400444041-==#ooooo##=-14441414111111111411--=##oo.o.ooo###=###       ",
"       4444044044441--###ooooo##=-1144411-111--1-111111-##ooo.o.oooo###=#       ",
"       4444444444441-####oooooo#=14414111-1------11111--=#oooo.ooo#######       ",
"       4444444044411-==##oooo##==11111111--===#=---1111-=o#oo.ooooo#####o       ",
"       144144444411---##o#oo#o##-1111111--=#####=--1111-#o#oo..ooo######        ",
"       14144141111111-==#o#o###=-111111-===######----111=#ooooooo#######        ",
"       41114114441111--=##o###==-1111-1-==####oo#==-111-=###ooooo#######        ",
"        1411411111111---==####=-1111111--#ooooo###--1111--##o##oo#####o#        ",
"        114141111411-11-===#==-111111---##oooooo##-11111-1-=#=#########o        ",
"        114111441111111----=-111141111-==#oooooo#=-1111-1--===####=o##o         ",
"        14111411411111111-11-111111111==##oooo##=--111111----==##=#####         ",
"        1114114141414111111111111411-1-==o#oo###=--111-1111-1==##=###oo         ",
"        11414411111111111111141141111--=####o#=----1111111---===#####o#         ",
"         11111141441111111111114111111--===#===--11111-1-1-1-==#=###ooo         ",
"         11441111111111111111-11111111-1--------11111-111-1---===###o#          ",
"         1111144111111-111-11111114111111-1-1-111111111111----=####o#o          ",
"         11114111111111-11-1111-1111111111-111-1111111-1-1--==#=###ooo          ",
"          44114111111-1------=1--1111111111111111111-111---====#####oo#         ",
"          1144111111--==#======--1-1144111111111111---1-----=#=#####oo#         ",
"          111111111---===###=##=--1111111111111--1-----=--====##o#oo#oo         ",
"           141411111-==####o###=--11114141111111-=-=###=====######ooo#o         ",
"           1111111---=#ooo#o###=-1111111411111-=-==###oo#####=##o####oo         ",
"           1111111--=##ooo#o#o==--11114411111--==###oooo#####=o##ooo#oo         ",
"            1411111-=##ooooo##=-1111411114111-==##ooooo.oo######o#o#o#o         ",
"            1141111-==###ooo##=--1-141111111--=##ooo...o.oooo##o#oo#o###        ",
"           4111111--==##o###==--111411441111-==##ooo......oo##o##ooooo##        ",
"           111111111---=##==---11111441114111==ooo.......ooo##ooo#ooo###        ",
"           1141411111---===--11-11111114141-==#oooo.......oooo###o##o###        ",
"           11111111111-----11-11111141111111==##ooo.......ooooo##o#o####=       ",
"          111111-1111-1--1-1-1111111111111-1-=##oo......oooo##oooo######=       ",
"          1111111111-1---1---1-1-1111111111-==##oo.o...ooooo#oo#o######=#       ",
"         111111111-----=--------1-111-11111-===##oo.o.o.ooo#o#oo##o#####=       ",
"         11--1-1--====#==#===##===--11111-1-===##oooooooooo#o##o#oo#=##==       ",
"         111111-==###############=----1111----=######o##o#o#ooo######===--      ",
"        1-11-11-#=###o#o#oooo#o###==-1-1-1-----=###=#o#o#o#oo##o###=##===-      ",
"        1-111--#####ooooooooooooo##=--1-1------===######o#o#o#o#####====--      ",
"       1-11----=###oooooooooooo###==-1-11-1---=##=#####oooo########=====-       ",
"       -11-11--=#o#oooooooooo#oo##==--1-----======#=############=#=====         ",
"       1-1-----=#o=ooooooooooo##====------======#=#########o#o#=#===            ",
"      1--11-1-====#######oo#oo##====1---1-=====#=#=#########==###               ",
"      1-1-1----=###=#=########====----==--==#=################                  ",
"      1-------=====####=#=#=====-----===-=======#==#=####=                      ",
"      --1------=====#==#=##==#==========#===#=#==#=##=#                         ",
"       1---1----==##==#========================##=#=                            ",
"         -------====#=======================#===                                ",
"                   ==  ==#=##=============#==                                   ",
"                                       ==                                       ",
"                                                                                ",
"                                                                                ",
"                                                                                "
};
