/* XPM */
static char *acc50d0b97e54f9adbee40e60b11d5fcWFDIAMCa8AyIHorN[] = {
/* columns rows colors chars-per-pixel */
"80 80 127 2 ",
"   c None",
".  c black",
"X  c #000001",
"o  c #000002",
"O  c #000003",
"+  c #010005",
"@  c #020005",
"#  c #020006",
"$  c #030007",
"%  c #030008",
"&  c #030009",
"*  c #040008",
"=  c #040009",
"-  c #050009",
";  c #04000A",
":  c #05000A",
">  c #04000B",
",  c #05000B",
"<  c #06000B",
"1  c #04000C",
"2  c #05000C",
"3  c #05000D",
"4  c #06000C",
"5  c #07000C",
"6  c #06000D",
"7  c #07000D",
"8  c #06000E",
"9  c #07000E",
"0  c #07000F",
"q  c #08000E",
"w  c #08000F",
"e  c #070010",
"r  c #080010",
"t  c #090010",
"y  c #080011",
"u  c #090011",
"i  c #080012",
"p  c #090012",
"a  c #090013",
"s  c #0A0012",
"d  c #0A0013",
"f  c #0B0013",
"g  c #090014",
"h  c #0A0014",
"j  c #0B0014",
"k  c #0A0015",
"l  c #0B0015",
"z  c #0B0016",
"x  c #0B0017",
"c  c #0C0015",
"v  c #0C0016",
"b  c #0D0016",
"n  c #0C0017",
"m  c #0D0017",
"M  c #0C0018",
"N  c #0D0018",
"B  c #0C0019",
"V  c #0D0019",
"C  c #0E0018",
"Z  c #0E0019",
"A  c #0D001A",
"S  c #0D001B",
"D  c #0E001A",
"F  c #0F001A",
"G  c #0E001B",
"H  c #0F001B",
"J  c #0E001C",
"K  c #0F001C",
"L  c #0E001D",
"P  c #0F001D",
"I  c #0F001E",
"U  c #10001C",
"Y  c #10001D",
"T  c #11001D",
"R  c #10001E",
"E  c #11001E",
"W  c #10001F",
"Q  c #11001F",
"!  c #12001F",
"~  c #100020",
"^  c #110020",
"/  c #110021",
"(  c #120020",
")  c #120021",
"_  c #130021",
"`  c #110022",
"'  c #120022",
"]  c #130022",
"[  c #120023",
"{  c #130023",
"}  c #140023",
"|  c #110024",
" . c #130024",
".. c #130025",
"X. c #130027",
"o. c #140024",
"O. c #140025",
"+. c #150025",
"@. c #140026",
"#. c #150026",
"$. c #140027",
"%. c #150027",
"&. c #160027",
"*. c #150028",
"=. c #160028",
"-. c #160029",
";. c #170029",
":. c #16002A",
">. c #17002A",
",. c #17002B",
"<. c #16002C",
"1. c #17002C",
"2. c #18002C",
"3. c #19002C",
"4. c #18002D",
"5. c #18002E",
"6. c #19002F",
"7. c #1A002F",
"8. c #190030",
"9. c #1B0031",
"0. c #1B0033",
"q. c #1C0035",
"w. c #1E0038",
"e. c #1F003A",
"r. c #20003A",
"t. c #240040",
"y. c #240041",
/* pixels */
"                                                                                                                                                                ",
"                                                                                                                                                                ",
"                                                                                                                                                                ",
"                                                                                                                                                                ",
"                                                                                                                                                                ",
"                                                                                                                                                                ",
"                                                                                                                                                                ",
"                                                                                                                                                                ",
"                                                                                                                                                                ",
"                                                                                                                                                                ",
"                                                                                                                                                                ",
"                                                                                                                                                                ",
"                                                                                                                                                                ",
"                                                                                                                                                                ",
"                                                                                                                                                                ",
"                                                                                                                                                                ",
"                                                                                                                                                                ",
"                                                                                                                                                                ",
"                                                                                                                                                                ",
"                                                                                                                                                                ",
"                                                                                                                                                                ",
"                                                                                                                                                                ",
"                                                                                                                                                                ",
"                                                                                    $.                                                                          ",
"                                                                                  $.+.+.+.$.                                                                    ",
"                                                                                &.&.+.+.+.+.$.                                                                  ",
"                                                                            >.$.&.$.+.$.+._ _ :.                                                                ",
"                                                                      r.9.>.$.$.&.$.>.$._ T T _ :.:.                                                            ",
"                                                                  w.0.:.$.$.+._ ....:.$...P H H T _ $.                                                          ",
"                                                            ..$.5.1..._ T T T T _ $.:.:.:.P H n n H _                                                           ",
"                                                        :._ _ ..:...T H H h h H T ..>.>.:.$.T M n h T $.                                                        ",
"                                                      :._ P ~ .._ P h q < 8 h h n U _ :.>.>...T h h H _                                                         ",
"                                                    1.~ P P .._ P n < < < 8 s s s s M H _ _ _ P H h H _                                                         ",
"                                                    | P M P ~ ~ H 8 * # < 8 8 8 8 8 8 s M P P H h h M P                                                         ",
"                                                  ..P P M _ ~ _ h % # < < < 8 % # . . # 1 h H M h h h H _                                                       ",
"                                                .._ ~ M P _ ..P s < < * # < # . . . . . % e h M h h h h H                                                       ",
"                                                .._ P H H _ ..P s < < * < < # . . . . . < h H h H h h H h ~                                                     ",
"                                              $._ T P H P .._ _ s q < < 8 < < < # # . . % n h H H n M H H H                                                     ",
"                                              $._ ..P H P X..._ h 8 < 8 8 s s h s 8 . . < n H h h h P P H M P                                                   ",
"                                                _ _ P P _ :._ _ h q 8 q 8 h P _ P h 8 # 8 h H h s H P T P M H _                                                 ",
"                                                  $.$.$.$.+._ H h s < 8 q s T _ ~ M h 1 s h h H e P _ P T n H T                                                 ",
"                                                  5.5.5.$.T T n s s < < < 8 h P H H M M h s h h e P _ P T f n T _                                               ",
"                                                    0.0.$.U s q 8 q 8 s 8 < 8 h H P H H h h s 8 h _ _ P H h n n P ..                                            ",
"                                                    r.0.+.n 5 < < 8 s s s q 8 e h H P P H h 8 s M _ _ P h h f n P _                                             ",
"                                                      r.$.s < * < < M h s s 8 < e M P _ M s s h ~ _ P h s 8 s n T _                                             ",
"                                                      y.$.f 8 * * % s M h s q 8 e h M H M h H P ~ ~ M s 8 8 q n T                                               ",
"                                                        +.s < < < % 8 s s s 8 q e s h M P H h H n h e 8 < 8 h P                                                 ",
"                                                        >.h 8 < < % < 8 h s 8 8 8 s H H M h e e q 8 % % < s H                                                   ",
"                                                          H s 8 8 8 e e s h s s q s n h n q 8 8 < # # < 8 s T                                                   ",
"                                                          P e 8 8 e s h h h h h h n H n s < < % # < % < s P                                                     ",
"                                                          T s e q s s H H h h h H P P h s 8 < % < < 8 s H _                                                     ",
"                                                          $.n s q s s H M P H H _ _ T P h e 8 8 8 s n T                                                         ",
"                                                            T h s s s H H T ..$.1.:.:.~ H s M H H P $.                                                          ",
"                                                              T H h h h H ..:.5.0.:.:.P T _ _                                                                   ",
"                                                                _ T P T _ $.:.:.5.:..._ ..                                                                      ",
"                                                                  .._ T T T $.:...P _                                                                           ",
"                                                                    _ P H T H H H                                                                               ",
"                                                                        h n h s                                                                                 ",
"                                                                                                                                                                ",
"                                                                                                                                                                ",
"                                                                                                                                                                ",
"                                                                                                                                                                ",
"                                                                                                                                                                ",
"                                                                                                                                                                ",
"                                                                                                                                                                ",
"                                                                                                                                                                ",
"                                                                                                                                                                ",
"                                                                                                                                                                ",
"                                                                                                                                                                ",
"                                                                                                                                                                ",
"                                                                                                                                                                ",
"                                                                                                                                                                ",
"                                                                                                                                                                ",
"                                                                                                                                                                ",
"                                                                                                                                                                ",
"                                                                                                                                                                ",
"                                                                                                                                                                ",
"                                                                                                                                                                ",
"                                                                                                                                                                ",
"                                                                                                                                                                "
};
