/* XPM */
static char *bed381a0ee124e9e879ef77e6231a8ceVbwYjS1ot1OPooDg[] = {
/* columns rows colors chars-per-pixel */
"80 80 251 2 ",
"   c None",
".  c #000000",
"X  c #01060A",
"o  c #040A0F",
"O  c #040C13",
"+  c #07121C",
"@  c #091726",
"#  c #0B1E31",
"$  c #0D2539",
"%  c #102C39",
"&  c #183755",
"*  c #153149",
"=  c #1E5057",
"-  c #287653",
";  c #1E5274",
":  c #26526F",
">  c #2A6D6F",
",  c #264D52",
"<  c #396353",
"1  c #298D1C",
"2  c #278A19",
"3  c #2B921B",
"4  c #2D981B",
"5  c #31961C",
"6  c #278924",
"7  c #298C25",
"8  c #298D2C",
"9  c #27892A",
"0  c #348D29",
"q  c #2B9424",
"w  c #2D9B23",
"e  c #2B942B",
"r  c #2D9B2B",
"t  c #35972A",
"y  c #298B34",
"u  c #2A8B3B",
"i  c #278836",
"p  c #2C9333",
"a  c #2E9A3C",
"s  c #2D9836",
"d  c #379837",
"f  c #358D36",
"g  c #35A425",
"h  c #33A22B",
"j  c #3CA62B",
"k  c #3EA92B",
"l  c #3CA827",
"z  c #3CA635",
"x  c #3DA63A",
"c  c #38A536",
"v  c #2EA020",
"b  c #34A41D",
"n  c #439838",
"m  c #41AA2D",
"M  c #42A934",
"N  c #43AA3B",
"B  c #46A539",
"V  c #51B03E",
"C  c #2B8B43",
"Z  c #2A8949",
"A  c #2E9647",
"S  c #389749",
"D  c #2C8A54",
"F  c #2C8A5B",
"G  c #2B8558",
"H  c #358B57",
"J  c #2E9555",
"K  c #329E5C",
"L  c #349858",
"P  c #358C48",
"I  c #39A447",
"U  c #39A357",
"Y  c #2D8968",
"T  c #358B68",
"R  c #339868",
"E  c #2E8876",
"W  c #358C7A",
"Q  c #349676",
"!  c #2F9167",
"~  c #39A268",
"^  c #3AA17B",
"/  c #479848",
"(  c #479756",
")  c #559C58",
"_  c #418F5B",
"`  c #45A947",
"'  c #54AA4B",
"]  c #59B249",
"[  c #48A755",
"{  c #56A858",
"}  c #5BB157",
"|  c #64B559",
" . c #62AC55",
".. c #479566",
"X. c #589B68",
"o. c #489577",
"O. c #539877",
"+. c #629F6E",
"@. c #47A767",
"#. c #59A866",
"$. c #47A778",
"%. c #55A979",
"&. c #5CB174",
"*. c #64A669",
"=. c #6BB966",
"-. c #73BC65",
";. c #68A676",
":. c #67B578",
">. c #74BC76",
",. c #7CC172",
"<. c #84C478",
"1. c #245689",
"2. c #275C95",
"3. c #2A6E8F",
"4. c #2B6BAA",
"5. c #1F5082",
"6. c #4C7299",
"7. c #2F8887",
"8. c #338989",
"9. c #369886",
"0. c #338997",
"q. c #369498",
"w. c #2F8795",
"e. c #3488A8",
"r. c #3796A7",
"t. c #3485BB",
"y. c #3488B4",
"u. c #3A97BB",
"i. c #3DA19B",
"p. c #4C9686",
"a. c #579988",
"s. c #489496",
"d. c #589898",
"f. c #458F87",
"g. c #649E90",
"h. c #4AA785",
"j. c #57A888",
"k. c #47A495",
"l. c #58AA96",
"z. c #5EB196",
"x. c #65A48B",
"c. c #6AB392",
"v. c #458DA6",
"b. c #4996A5",
"n. c #5796A8",
"m. c #458CB4",
"M. c #4994B5",
"N. c #5895B7",
"B. c #5E85B0",
"V. c #6699AC",
"C. c #48A4A7",
"Z. c #58AAA6",
"A. c #4AA4B7",
"S. c #56A8B7",
"D. c #5FB0B9",
"F. c #6AB3B9",
"G. c #6FB3AD",
"H. c #3584CC",
"J. c #3787C7",
"K. c #3A96C6",
"L. c #3683D4",
"P. c #3A85D2",
"I. c #398ADE",
"U. c #3888D8",
"Y. c #3C96D7",
"T. c #3A8DE4",
"R. c #3B8FE8",
"E. c #3B92E3",
"W. c #3C92EC",
"Q. c #3D99E6",
"!. c #3D95F3",
"~. c #3E98F6",
"^. c #3F99F8",
"/. c #4B8CCD",
"(. c #468ACA",
"). c #538ECD",
"_. c #479AC6",
"`. c #5894CA",
"'. c #438AD2",
"]. c #4B8DD2",
"[. c #438DDA",
"{. c #4795D7",
"}. c #5492D3",
"|. c #5B95D2",
" X c #5899D8",
".X c #518FD1",
"XX c #669ACB",
"oX c #639BD4",
"OX c #679DD6",
"+X c #719FD1",
"@X c #4AA3C7",
"#X c #56A9C8",
"$X c #4DA3DA",
"%X c #57A8D7",
"&X c #65ABC8",
"*X c #78B8C8",
"=X c #66A6D7",
"-X c #78A4D2",
";X c #72AED2",
":X c #439CEC",
">X c #4B9AEB",
",X c #4597E7",
"<X c #539DE8",
"1X c #419AF5",
"2X c #4B9EF4",
"3X c #449CFA",
"4X c #489FFB",
"5X c #4297F0",
"6X c #4997E9",
"7X c #4CA2E7",
"8X c #58A5EA",
"9X c #4CA1FB",
"0X c #4EA1F4",
"qX c #54A3F3",
"wX c #5AA6F4",
"eX c #5DA8F5",
"rX c #54A5FB",
"tX c #5CA9FB",
"yX c #58A7FB",
"uX c #6BACED",
"iX c #64A8EA",
"pX c #74AEEC",
"aX c #79B3EA",
"sX c #63ABF4",
"dX c #6AADF3",
"fX c #63A9F4",
"gX c #6DB1F6",
"hX c #73B2F4",
"jX c #7AB6F4",
"kX c #7DB9F8",
"lX c #71AFEF",
"zX c #7CC19B",
"xX c #83AFB1",
"cX c #88C3A9",
"vX c #82C28B",
"bX c #88ADD2",
"nX c #8CB3D4",
"mX c #98B4D3",
"MX c #95B0CF",
"NX c #A7BCD3",
"BX c #A2B4C8",
"VX c #85BCF5",
"CX c #83B8EB",
"ZX c #89C2CB",
"AX c #B4C9D3",
"SX c #92C6F5",
"DX c #AFD4F1",
"FX c #D7E9FA",
"GX c #CEE6F0",
"HX c #E6F1FB",
"JX c #C5E1E4",
/* pixels */
"                                                                                                                                                                ",
"                                                                                                                                                                ",
"                                                                    . . . . . . + . . X . X .                                                                   ",
"                                                            . X . X O @ * & xXFXHXFXMX0.: < @ + o . .                                                           ",
"                                                      . . X # > Z.AXJXSX;XGXHXHXJXFXFXFXHXHXFXSXVX`.& # . .                                                     ",
"                                                  . o # 1.[ I &.$.zXzX*XnXDXGXGXGXGXDXDXFXFXHXkXgXtX^.9X4.& # .                                                 ",
"                                              . O : I ^ U U z &.zXc.D.A.@XSXDXJXAXJXDXkXkXSXgXkX4X>X2Xk.j.k.7X4.* .                                             ",
"                                          . O - M x M [ [ $.[ z I I $X@Xz.F.aX&Xz.ZXDXyXgXrXrX9X0XwX0X=Xz.z.A.@X%X4.% .                                         ",
"                                      . o : k k x k N ` ` &.} @.` U ^ ~ i.h.ZXA.A.:XSXkX4X9X7X#XS.aXCX=XF.*XF.$.@.9.~ - . .                                     ",
"                                    . , ` k M M N N ` [ &.&.$.z.&.Z.$.I h.A.k.k.i.9XgX4X9X0XD.l.S.D.&X;XZ.%Xz.^ h.Q A v 3.% .                                   ",
"                                  . - N x k [ x z N } | :.c.zX*XF.*X^ U ~ C.i.:X4X9X9X9XtXeX;XF.z.G.c.G.z.z.z.C.C.` r v s A > .                                 ",
"                                . & x m k @.U M z ` @.} D.:.vXZXG.:.&.V I i.@X@X0XsXtXtXgXgXD.*X*Xz.Z.G.c.k.l.i.U c a L K I v u .                               ",
"                            . o A z k z M M M m I &.&.&.F.,.,.zXcX:.:.} ~ i.7X3XlXgXeXgXjXgXF.F.sX&XG.&XA.i.h.~ I v v A K K a v u .                             ",
"                          . & ` m m k z N m m m @.h.&.:.D.zXzXzXzXcXuX&.h.7X0XeXeXeXkXgXjXjXG.D.&XiXeXk.i.i.@.c R r v I K A w v a > .                           ",
"                        . o M M m m m M m m m N ~ C.$.&.D.zXcXcXF.CXG.F.$X%XgXkXkXjXjXgXgXCXdX:.&X8X%Xk.9.i.K K R K a A a a s s ! a - .                         ",
"                        . : I m m V m M M M N ` $.z.k.h.gX%XgX*XZXSXZX%X8XgXkXkXkXSXSXaXgXgXgX%XA.@X@XC.Y.9.K K 9.K s v s r a s ! a w > .                       ",
"                      . * N z m m m M N ` V ` @.$.#XD.eX#XD.kXgXjX*XuXiXhXhXgXkXVXVXhXhXgXgXqXqX@X$Xi.~ 9.9.K I K K h r r 4 w w w r s A 1..                     ",
"                    . - m m m m M M m V [ @.[ Z.h.A.%XtX8X#XtXgXyX#XeXeXhXjXVXgXkXVXhXhXdXeX9X9X3XK.Q.K K q.I ~ 9.R A a r w 4 w w J q A J - .                   ",
"                  . & k m m m m M N N ` ~ [ } A.D.D.gXtXtXtXtXtXyXyXrXqXtXdXdXhXhXhXdXgXdXrX9X^.:X:XQ.9.h.A.j.%.Q Q I d s r r w q q s A p A X .                 ",
"                  o z l k z m z N N N @.&.&.h.#XtXtXtXtXtXtXtXtXtX7X7X9X9X9XwXhXgXdXdXeXqX3X0X1X3X3XrX7XaX{.o.Z.=XS.k.K A a 4 q w d e q w q G .                 ",
"                . > z j k x k m m N N h.k.#X#X#XtXtXtXtXtXtXtXtXyX#X$XrX9X9XgXjXjXdXhXsXqX9X9X3X3XrX0X8XgXuX&XD.=XS.@.Q a s c t m / 3 5 t q q X .               ",
"                O z l k z k k k m N k.k.#X8X%X%XtXtXtXtXtXtX%XtXyXA.$X9X9X9XyXsXkXVXjXsXqX0XdXyX9X8XlXdXiX*X;XD.$.#.[ R L d c t n m B q q 3 8 y .               ",
"              . : z k k m k x m N ` h.h.C.rXtXtXtXtXtXtXtXtX%X%X%XrXrX9X9X4XtXsXfXgXsXsXdXqXwXqX0XsXkXeXsXpXG.z.*.{ { d q j B  .{ n t d t 4 e 3 > .             ",
"              o x x z k k k m k N ` I h.%XtXrXtXtXtXtXtXtXtX#X@X#XrX9X9X9X9X4X4XsXgX%X$XeXqXhXfX7XeXgXaXeX&Xz.c.[ U S r w n  . .{ ' n n 5 3 q 3 1 X             ",
"            . ; [ z l l l l k m k U $.k.7XtXtXyXtXyXtXtXtXtX7XD.0X9X9X9X9X9X3X9X4X4XM.@XeXsXgXhXfXpXiXfXwX%XC.l.@.{ x s s { *.>.' n f n q 3 3 1 p > .           ",
"            o I U I k j k z I z k z $.A.@XrXyXyXyXyXyXyXyXrXtX$X@X8X9X9X9X9X9X3X4X4XsXgXsXhXdXsXwXfXuXfX8X X&X_.S d A A R d / { ` d 5 t 3 3 3 3 e y X           ",
"          . - I k l l l k U @.x N ` h.7XrXyXrXrXyXyXyXyXtX#X7X$X7X9X9X9X3X9X3X9X3X9XjXdXsXhXdXqX0X2XqX2X>X,XK.R A s A J A s t n p t e r 5 1 3 u 8 6 @ .         ",
"          . #.x m ` M l z x U N I $.7X@X7XrXrXrXrXyXrXrXC.k.A.$X7XrX9X9X9X3X9X3X4X4XwXtXqXqXqX2XdX>X2X2XW.u.K.9.A K Q J e r s t A 3 3 3 1 q 1 1 3 2 - .         ",
"          + #.] ] V M m M B I I U $.@XA.rXrXrXrXrXrXrX$Xk.h.A.$X:X7X4X4X3X9X3X3X3X3X4X3X4X1X1X1X2X1X!.!.K.r.q.r.Q r.r.J t u s C E p 1 p q q 8 1 3 2 1 .         ",
"        . * ` | | ] V V ' ] h.@.$.h.%XyXrXrXrXrXrXrXrX@XC.k.A.7X9X9X4X4X9X3X3X9X3X3X3X1X1X1X1X^.^.^.5X!.E.r.9.9.Q J 9.a J A e q a C p C 6 9 D 8 2 2 7 +         ",
"        . > ,.,.<.| ]  .{ { } &.=.h.D.%XtXrXrXrXrX7X0X7XA.A.7X9X9X4X4X4X4X9X3X3X3X1X1X1X1X1X~.1X^.5X!.5X!.W.9.r.J ! ! ! e.A p e y ! ! J q 6 8 8 2 2 6 % .       ",
"        . :.=.,.-.-.-.-.} | ] } | ,.G.CXgXgXrX0X0X7X7X7X9X9X9X9X4X4X4X9X3X3X3X3X1X1X1X1X1X^.1X~.~.!.!.!.!.W.E.E.J Q q.7.r.9.D A J D Z D y 8 y e 2 1 u i .       ",
"      . O ,.=.,.,.-.-.,.=.=.| =.&.vXzXCXSXhXsX7X@X$X9X9X4X9X4X4X4X3X4X4X3X3X3X3X1X1X1X^.1X^.1X!.1X!.!.!.!.W.W.Y.9.! ! ! 9.Q A y u u Q J 9 6 9 1 6 1 C 8 .       ",
"      . @ ] N =.=.| -.-.=.=.,.zXj.:.c.hXhXsX9X:X9X9X3X9X4X3X4X4X4X4X4X3X3X3X3X3X1X1X1X1X^.1X!.!.!.1X!.!.W.!.W.Y.K.e.F Q ! 0.W C 1 e Z E u e 6 6 6 1 y u X       ",
"      . % ] V =.V ] ] ] ] | | @.z.j.&XtXeX9X9X9X1X9X9X3X4X3X9X4X4X3X3X3X3X^.3X3X1X^.^.1X^.!.!.1X1X!.!.W.!.W.!.T.T.Y.! ! 9.y.7.p y y D J D y y D i Z F u O       ",
"      . = x x V ] M N ] ` V V I &.$.A.7X3X9X9X3X^.9X3X9X3X4X4X3X3X3X3X3X3X3X^.3X1X^.1X1X!.1X1X!.!.!.5XW.!.W.R.R.W.T.0.r.w.7.A p A D D u D E C C E Z 7.Y $ .     ",
"      . a v h c V N I c h h c ~ @.k.:X9X3X9X3X9X9X9X^.9X3X3X3X3X3X3X3X3X3X^.3X^.^.^.1X!.1X!.!.!.!.!.!.W.W.W.R.W.R.T.r.w.q.q.p u q.E 7.y.w.E 7 u u F 7.G * .     ",
"      . c g h v l c g g v I I I ~ ^ :X3X3X9X3X3X3X3X9X^.3X3X3X3X3X3X3X3X3X^.^.^.1X^.!.^.~.!.5X1X5XR.W.!.W.W.R.R.R.T.T.9.y.y.A w.8.7.w.J.w.E E y i C Z i = .     ",
"      @ g h c h c h g g c c U ~ I $X9X3X3X3X3X3X3X3X^.9X3X3X3X3X3X3X^.^.^.^.^.^.!.1X~.~.!.!.Y.K.R.W.W.W.W.W.R.R.R.T.T.7.u.w.7.J.J.7.y.E Z D E Y 9 Y E i - .     ",
"      & h h g h h c h g ~ K I ~ i.:X3X3X3X9X3X3X3X3X3X^.3X3X3X3X3X^.~.^.^.^.^.~.~.!.5X5X!.!.W.K.y.W.W.W.R.R.R.R.T.T.T.I.U.K.y.e.t.y.t.0.D F E 8.F t.e.E 3..     ",
"      o b h I b v h v g I I ~ u.Q.3X:X3X3X3X3X3X3X3X3X3X3X3X1X3X^.^.^.^.1X1X1X1X!.1X!.!.!.!.W.J.u.W.W.W.R.E.R.T.R.T.R.I.I.I.I.J.y.e.e.Y E Y E 4.J t.H.t.5..     ",
"      . d h h h h h h h c h i.i.$X3X3X:X$X^.3X3X3X3X3X3X3XW.3X2X0X0X9X:X5X5X5X5X!.!.!.!.!.W.!.W.W.W.W.R.R.R.T.R.T.I.I.I.I.I.I.L.t.E F e.y.e.7.Y Y 4.w.0.& .     ",
"      . D h h K K h I a h K ^ K.K.3X:X:XQ.:X3X3X1X3X3XY.u.@XwX1XqXqX7X0XqXwXfX5X!.!.!.!.W.!.!.W.W.R.R.R.R.E.T.T.T.T.I.I.I.I.I.L.U.e.E w.4.y.8.E e.t.w.7.* .     ",
"      . = h s I ^ K K K I ~ u.K.u.3X3X3XQ.^.^.3X^.1X3X/.@XiXfX<XuXfX8XsXqXiX<X<XqX5XW.W.W.!.R.W.R.W.R.R.T.R.T.T.T.I.I.I.I.I.I.I.L.y.y.E 0.y.w.y.H.L.L.y.@       ",
"      . & a U h ^ K K ^ 9.i.i.:X3X3X:XQ.@X^.3X^.1X1X1XqXqXfXuXjXdXpXpXpXaXuXpXiX>X6X5X5X5XR.W.W.R.R.R.R.R.T.T.T.T.I.I.I.I.I.L.I.L.L.L.t.t.t.H.L.L.U.L.L.O       ",
"      . $ A a h h ^ K i.~ ~ Y.Q.3X~.:X^.^.^.^.3X1X1X1XqXuXlXpXuXfXuXuXpXpXpXpX+XOX<X6X6XW.R.W.R.R.R.T.R.E.T.T.I.I.I.U.I.L.I.I.L.L.L.y.H.t.H.L.L.U.L.L.L..       ",
"      . + ~ K c K K 9.i.K ~ Y.3X^.^.^.^.^.^.^.^.!.1X2XwXuXCXCXpXuXpXaXpXCXCXpXuX<X<X6X5XW.W.R.R.R.T.R.T.T.I.T.T.J.t.U.U.U.w.y.L.H.t.e.w.L.L.L.L.I.L.I.L..       ",
"        o K ~ K ~ 9.u.K.Y.u.Q.^.^.^.^.^.~.^.^.^.1X1X2XuXpXdXpXwXfXiXiXuXpXpXpXiXiX>X6X6XR.R.R.R.R.R.T.T.T.H.J.H.9.! q.e.H.t.e.e.w.Y y.w.7.t.J.L.L.L.I.1..       ",
"        . w.U K 9.Y.r.Q.^.K.Q.^.~.~.~.~.!.!.!.!.!.!.~.:X>X2XiXqX6X<X<XiXpXiXiX<X<X5XR.R.R.R.R.T.T.T.T.T.T.[.o.Q f...W 8.e.t.8.0.e.Y G E 0.e.4.U.U.U.U.* .       ",
"        . & 9.~ Q.u.~.~.~.Q.~.^.~.!.~.!.!.!.!.!.!.!.Q.~.!.K.R.>X6X5X6X>X<X<X<X6X<XR.R.R.R.R.T.T.T.T.T.I.].M.O.o.d.d.( ( o.8.G Y w.Y G G G 0.e.H.J.H.H.X         ",
"          # K 9.u.K.Q.~.~.~.~.~.!.!.!.!.!.!.W.E.Q.Y.Y.Q.>X{.5XW.Y.R.R.!.[.R.6X6X6XT.R.T.T.T.T.T.T.T.I.u.oXXXG.Z.a.X.n ) / ( P P i y F u u E e.0.t.J.1.X         ",
"          . 4.r.Q.:X~.~.~.~.~.~.!.!.!.!.!.!.!.I.Q.Q.u.Y.6XC.r.u.J.Y.T.R.R.R.R.R.,XR.R.T.T.T.T.I.I.U.0.Y N.oXV.g.d.( { +.O._ f C G i Z u 9 w.7.y.w.e.* .         ",
"          . & Y.E.~.!.~.~.!.!.!.!.W.!.!.W.E.E.E. Xb.j.n.b.$.R r.Q Q T.T.R.R.R.R.T.T.T.T.R.T.T.T.I.t.H.F r.n.m.V.x.O.+.+.../ 0 9 i i 6 i F Y w.t.0.J.X           ",
"            @ W.!.!.~.~.W.!.!.!.!.!.!.W.E.R.W._.%X[ O.Z.l.p.p.q.q.q.y.U.T.6X[.R.T.[.T.T.[.[.I.I.I.I.0.J ! W o.O.V.g.+.a./ ) f i i Z y Z Y F D w.J.2..           ",
"            . 4.!.!.!.!.!.W.!.!.W.W.W.r.u.u.K.q.( #.x.F.$.O.9.q.Q e.u.Y.[.<X6X<XoX<X X}.[.[.[.}.U.P.e.T D E G _ s.d.f.X.n / / 6 y u 6 6 i i C F y.$ .           ",
"              % !.!.!.W.!.W.W.W.W.E.R.K.7.Q Q S B ' *.l.j.( R P E 9.y.r.<XoX XOXOX6X}.OX<X}.}.[.[.[.'.0.W v.E T T d.) - 0 n 0 2 6 i 6 6 D i 9 F 1..             ",
"              . 4.W.!.!.W.W.!.e.Y.E.E.K.Q p J ( M ' / ) { p.s q ! q.0.9.`. X=X<X=XOX XOXOXOX=XOX|.oXoX`.`.n.o.Y 3.T o._ i n 2 9 2 i u C - i Z E % .             ",
"                * W.W.W.W.W.U.q.r.E.! ! A p p q q / K { d S p e C K.r.Q .X XOXoXoXOXoXOXOXOXoX+X=XoXXX|.}.}.> E Z y Y Z 6 2 2 i i 2 6 C Z 6 9 > .               ",
"                . 4.R.W.E.R.K.K.r.J.! a ! F A Q H s d f e e p D Y W ! T f. X}.OX=XOXoXOXOX}.oXoX+X|.}.].'.P.7.E Y 2 2 2 2 2 2 9 i 9 2 i D C 6 %                 ",
"                  $ W.W.Y.K.E.e.! R ! D Q q.q.W d / d t C u 8 Z F ! T u y.{.b.d. X}.}..X}..X}.].|./.P.P.P.J.P.H.Y i i 6 2 2 2 i 6 9 9 u 7.i - .                 ",
"                  . 1.W.R.W.R.t.T F q.J ..p.b.H ) {  ./ ( q 7 e F u C P s.`.b.e.'.'.'..X'.}.'.P.P.P.L.L.P.4.s.m.> i P i 6 2 0 0 2 0 D 0 P - .                   ",
"                    . 2.R.R.T.Y.r.J 9...S X.a.O.{ ) *.+./ 8 8 C ! u C W y.P.'.v.'.'.U.L.P.'.L.L.L.L.L.].J.v.v.s.O._ / n 6 0 f 0 0 0 S P P $ .                   ",
"                      . 1.W.T.R.T.Y.K...x.#. .;.;.;.x.+.0 8 u u H T T b.m.].'._.'.'.'.'.L.L.L.L.L.L.'.'.).).B.d.../ < ) / f 0 / / _ / ( - .                     ",
"                        . 2.R.I.E.J.}.d.x.x.*.) ;.;.O.o.P u ( S 8.b.f.].N.].(.).N.].'.P.P.L.L.L.L.H.'.P.`.v.d.g.+.) ) ) / / ) ) *.X.;.> .                       ",
"                          $ T.T.T.Y.M.b.d.j.;.) X.O.(.b.W v._ p.s.m.v.).N.N.|.XXd.n.}.U.P.P.L.L.L.H./.).6.f.O.g.+./ ) ) / ) ) ) / +.2..                         ",
"                          . o 2.U.y.0.s.O.O.a.p.n.b.).n.N.g.d.n.m.n.N.XXV.XX).oXV.`.]./.L.L.H.L.L.P.P.(.B.d.a.+.+.X.a._ / ) ) X.+.1..                           ",
"                            . . 1.[.m.v.f.s.n.M.v./.oXN.V.d.g.V.N.V.a.V.V.`.XXXXXX).(.].H.L.L.L.L.H.L.6.8.f.a.X.O..._ f _ _ / _ ; .                             ",
"                                . 5.Y.}.(.r.8.8.m.).&XXX+XXXp.d.V.B.s.6.`.`.).)..X)./.P.L.H.L.L.L.H.H.L.m.m.v.d.W ..o.H - O.X.: .                               ",
"                                  . 1.P.'.y.q.0.P.oX).|.N.)./.m.).XX(.(.(.).(.(.-X-X+X(.L.L.P.L.'.'.L.H.e.3.y.8.C P H G Z 0.1..                                 ",
"                                    . 1.H.H.4.L.L.P.P.(.|.m.|./.).P.(.P.).P.(.L.-XNXMX'.'.+XbXoXoX]..XP.H.(.J.8.E Y F w.: % .                                   ",
"                                      . X 2.J.L.L.L.L.P.+X|.).P.P.P.P.+X+XXXL.+X-XBX`.bXNXNX-XbXoXbXmXbXP.m.v.8.Y 7.; $ .                                       ",
"                                          . X 2.L.L.L.P.oX).].+X).P.+XBXbXMXMXbX-X-XXXNXNXAX].|.+XmXAXmX].+Xm.e.E ; . .                                         ",
"                                              . X 1.P..X`.MXoX-X]..XbXNXbXMXNXNXBXNX|.mXNXNXnX}.oXOXbXbX-XnX X; $ .                                             ",
"                                                  . X @ B.oXNX+X-X-XbXMX-XbXNXAXMXMXbXmXNXNXNX|.|.MXNX-X1.& @ .                                                 ",
"                                                      . . X + 6.MX-XbXBX|.BXNXNXbXmXNXbXnXmXmXmX|.6.: @ . .                                                     ",
"                                                            X X . X O @ $ : : V.BXV.6.* # + X . X .                                                             ",
"                                                                      . . . . . X . . . . .                                                                     ",
"                                                                                                                                                                ",
"                                                                                                                                                                ",
"                                                                                                                                                                "
};
