/* XPM */
static char *_2ec01bc3dc9435ae050513d05dba52eptZx8bX9Bcg9uLXn[] = {
/* columns rows colors chars-per-pixel */
"80 80 199 2 ",
"   c None",
".  c #0D0D0D",
"X  c #070707",
"o  c #131313",
"O  c #1A1A1A",
"+  c #222222",
"@  c #2B2B2B",
"#  c #33282E",
"$  c #382C32",
"%  c #323232",
"&  c #5B0E0E",
"*  c #550808",
"=  c #471717",
"-  c #5E1313",
";  c #551313",
":  c #4B0E0E",
">  c #6C1B1B",
",  c #661414",
"<  c #7C1313",
"1  c #751414",
"2  c #640909",
"3  c #571D3A",
"4  c #5B2828",
"5  c #472B39",
"6  c #772626",
"7  c #692A2A",
"8  c #112749",
"9  c #152A4B",
"0  c #192D4E",
"q  c #1E3152",
"w  c #1D304D",
"e  c #223656",
"r  c #263957",
"t  c #2A3C5B",
"y  c #273958",
"u  c #523141",
"i  c #762D51",
"p  c #31425D",
"a  c #374763",
"s  c #4A4A4A",
"d  c #584848",
"f  c #565656",
"g  c #594850",
"h  c #694B53",
"j  c #495975",
"k  c #40516B",
"l  c #705D66",
"z  c #54627A",
"x  c #6F6F6F",
"c  c #76676A",
"v  c #757575",
"b  c #7C7C7C",
"n  c #8D1212",
"m  c #8C1F1F",
"M  c #931515",
"N  c #9B1B1B",
"B  c #971919",
"V  c #920E0E",
"C  c #BA0D0D",
"Z  c #A51616",
"A  c #BA1515",
"S  c #AE0D0D",
"D  c #942525",
"F  c #A82323",
"G  c #BA2626",
"H  c #C50B0B",
"J  c #DA0D0D",
"K  c #CB1717",
"L  c #DE1D1D",
"P  c #D71717",
"I  c #EC0E0E",
"U  c #E40E0E",
"Y  c #F10C0C",
"T  c #E51515",
"R  c #EB1313",
"E  c #E31B1B",
"W  c #EA1A1A",
"Q  c #F51515",
"!  c #F51B1B",
"~  c #F81B1B",
"^  c #C82323",
"/  c #DC2222",
"(  c #D62828",
")  c #DE3232",
"_  c #ED2424",
"`  c #ED2B2B",
"'  c #E42727",
"]  c #F52424",
"[  c #F32C2C",
"{  c #F82727",
"}  c #EE3131",
"|  c #EE3535",
" . c #E83737",
".. c #EE3A3A",
"X. c #E73535",
"o. c #F23131",
"O. c #F53232",
"+. c #F23636",
"@. c #F43535",
"#. c #F63030",
"$. c #F23939",
"%. c #F13E3E",
"&. c #9A3768",
"*. c #A6346C",
"=. c #995D5D",
"-. c #A54444",
";. c #9A4670",
":. c #8A6E74",
">. c #F24141",
",. c #F14646",
"<. c #F14848",
"1. c #FF687A",
"2. c #5D6B84",
"3. c #5F718E",
"4. c #657389",
"5. c #687791",
"6. c #707C90",
"7. c #CB3B83",
"8. c #FF369A",
"9. c #FE3C9D",
"0. c #BD5E8E",
"q. c #AC6789",
"w. c #FE419F",
"e. c #CA699A",
"r. c #FF6E8B",
"t. c #FF7297",
"y. c #FE45A1",
"u. c #FF4CA5",
"i. c #FF53A9",
"p. c #FF5BAC",
"a. c #D277A4",
"s. c #FE76A6",
"d. c #FE78A8",
"f. c #FF65B2",
"g. c #FF6BB5",
"h. c #FE75B9",
"j. c #FF7BBD",
"k. c #FE74B5",
"l. c #F76CB1",
"z. c #788598",
"x. c #828282",
"c. c #8C8C8C",
"v. c #828A98",
"b. c #9B8A93",
"n. c #989898",
"m. c #94878E",
"M. c #A49799",
"N. c #8C97A9",
"B. c #959EAB",
"V. c #8A98B2",
"C. c #9BA3AF",
"Z. c #9DA5B1",
"A. c #8EA0B9",
"S. c #A3A3A3",
"D. c #ACA8AA",
"F. c #B3B3B3",
"G. c #BABABA",
"H. c #B7B3B9",
"J. c #A0A6B4",
"K. c #F785BE",
"L. c #C6ACBA",
"P. c #9CA9C3",
"I. c #ABB5C6",
"U. c #B8BDC5",
"Y. c #AFBFD9",
"T. c #FF84C1",
"R. c #FF8CC5",
"E. c #FF91C7",
"W. c #FF94C9",
"Q. c #FF99CB",
"!. c #C2BFC1",
"~. c #B5C2D9",
"^. c #BCCBE4",
"/. c #C4C4C4",
"(. c #CBCBCB",
"). c #C5C5CC",
"_. c #D5D4D5",
"`. c #DDDDDD",
"'. c #D7DADE",
"]. c #CACFD6",
"[. c #E1CFD8",
"{. c #C4D3EA",
"}. c #DADEE6",
"|. c #CEDCF3",
" X c #D1DEF4",
".X c #E4DCE0",
"XX c #D3E0F6",
"oX c #DBE5F5",
"OX c #E4E4E4",
"+X c #EDEDED",
"@X c #EAE4E8",
"#X c #EDEEF2",
"$X c #E5ECF7",
"%X c #EEF2F8",
"&X c #F4F4F4",
"*X c #F3F5F9",
"=X c #F9F9F9",
"-X c #F7F8FB",
";X c #F0ECEE",
/* pixels */
"                                                                                                                                                                ",
"                                                                            6 @                                                                                 ",
"                                                                        @ G #.` %                                                                               ",
"                                                                      + ( [ +.+.| %                                                                             ",
"                                                                  + 6 ` o.+.$.$.%. .%                                                                           ",
"                                                                O ^ ] [ o.+.$.%.%.%. .%                                                                         ",
"                                                              O / ] [ [ +.$.%.,.>.%.%. .@                                                                       ",
"                                                            O L ] [ [ [ +.%.>.,.,.,.%.$.) @                                                                     ",
"                                                          O E ! ] ] ` o.$.%.>.,.,.,.%.%.+.)                                                                     ",
"                                                        o P ! ] ] ] [ o.@.%.>.<.,.,.>.$.| } 7                                                                   ",
"                                                      o K ~ ! _ ] ] [ o.@.%.>.,.,.,.>.$.| } ' @                                                                 ",
"                                                      , ~ ! ! ] ] ] [ o.@.$.%.,.,.,.%... .} } 6                                                                 ",
"                                                    o T Q ~ ! ! ] ] ] o.+.$.%.>.,.>.%...| } } ` +                                                               ",
"                                                    - Q Q ~ ! ] ! ] [ o.+.$.%.>.>.%.%...| } ` ` 6                                                               ",
"                                                  o P Q ! W ! ! ] ] ] o.O.$.$.%.>.%.$...| } ` ` ' +                                                             ",
"                                                  : Q Q Q ! ! ! ! ] ] [ o.@.$.%.%.%.%.| | ` ` ` ` 4                                                             ",
"                                                  M Q Q Q ~ ! ! ! { ] [ @.@.@.%.$.$.$.| } ` ` ` _ F                                                             ",
"                                                . T Q Q Q Q ! ! ! ! { { O.@.@.@.$.$.| | } ` ` ` _ _ +                                                           ",
"                                                , Q Q Q Q ~ Q ! ! ] ] [ [ O.@.@.| @.| o.} ` _ _ _ _ >                                                           ",
"                                                H Y Q Q Q ~ ~ ~ ~ ! ] { #.O.@.@.@.| o.o.[ _ [ _ _ _ ' O                                                         ",
"                                                K Y Q Q Q Q Q ~ ~ ! ] ] [ [ O.O.O.O.o.o.[ _ _ _ ] _ _ B                                                         ",
"                                              o n Q Q Q ~ Q Q Q ~ ~ ! ] { #.O.O.O.o.o.[ [ _ _ _ _ W _ Z O                                                       ",
"                                              o n.M.< K Q Q Q Q ~ ~ ] { { #.O.O.o.#.[ [ _ _ _ _ _ K m + O                                                       ",
"                                              % &X&X+XG.x.; B Q Q ~ ~ ] { #.O.[ #.[ o._ _ _ ^ m x.G.    o                                                       ",
"                                              f &X&X&X=X&X&X_.S.:.> N ^ ' { [ ` ) G D 4 d b G.OX;X;X+X  O                                                       ",
"                                              b &X&X&X&X=X&X=X=X=X&X`.!.n.x f x.S.(.OX&X&X&X+X&X&X;X#X+XO                                                       ",
"                                              n.&X&X=X&X&X=X&X=X=X=X=X=X=X=X=X&X=X&X&X&X&X&X+X;X;X+X&X+X%                                                       ",
"                                              /.=X&X&X=X&X=X=X=X=X=X=X=X=X=X&X=X&X=X&X&X&X+X&X+X+X&X+X+Xs                                                       ",
"                                            . OX&X&X=X&X=X=X&X=X=X=X=X=X=X=X=X&X&X=X&X&X&X+X&X+X&X+X+X&Xf                                                       ",
"                                            . &X&X=X&X&X&X=X=X=X=X=X=X=X=X=X=X=X-X=X&X&X&X&X&X&X+X&X&X+Xv                                                       ",
"                                            % &X=X=X&X=X=X=X=X=X=X=X=X=X=X&X=X=X=X&X&X&X&X&X&X+X&X+X+X&Xc.                                                      ",
"                                            f &X&X&X=X&X=X=X=X=X=X=X;X].Z.N.N.G.OX=X&X&X&X&X&X&X+X+X&X+XS.                                                      ",
"                                            v &X&X=X=X&X=X=X=X=X&XZ.p q y t t t y 6.}.&X&X&X&X&X+X&X+X&XF.                                                      ",
"                                            c.&X&X&X&X=X=X=X=X#X2.q q 2.P.~.V.j r q y ~.&X&X&X;X&X+X&X+X(.                                                      ",
"                                            F.=X&X=X=X&X=X=X#Xz 9 w }.=X%XXXXXXX|.V.q q /.&X&X&X+X&X+X;X_.                                                      ",
"                                            (.&X=X&X&X=X&X=XB.8 0 ^.%X=X=X&XoXXX X|.~.0 p +X&X&X&X+X&X&XOX                                                      ",
"                                            `.&X&X&X=X=X=X+X0 8 ~.|.oX-X=X=X=X$X|.|.|.z 9 C.&X&X&X&X&X+X+X                                                      ",
"                                            +X=X&X=X=X&X=XI.8 j |.|.XXoX=X=X=X=X$X|.|.{.w k &X&X+X&X+X&X+X                                                      ",
"                                            +X&X&X=X&X=X&Xz.8 P.|.|.XXXXXX*X=X=X=X%X|.|.3.9 &X&X&X&X+X&XOX                                                      ",
"                                            `.&X=X&X&X=X=Xz 8 ^.|.|.XXXXXXXX%X=X=X=X&XXXV.9 OX&X&X&X&X+X_.                                                      ",
"                                            (.=X=X&X=X&X=Xk 8 ^.|.|.|.XXXXXXXXoX-X-X-X*X3.9 &X&X&X&X&X;X(.                                                      ",
"                                            F.=X&X&X&X=X&Xz.9 A.|.|.|.XXXXXXXX|.oX-X=X=XC.p &X&X&X;X&X&XG.                                                      ",
"                                            n.&X&X&X&X=X&X/.8 j |.|.XXXXXXXXXXXX XXX%X+Xa 4.&X&X&X&X;X&XS.                                                      ",
"                                            v &X=X&X&X&X=X=Xr 8 ^.XX|.|.XXXXXXXX X|.{.9 0 ].&X&X&X;X&X&Xc.                                                      ",
"                                            s =X&X&X&X&X&X=X~.0 9 ^.|.XXXXXXXXXX X{.0 0 z &X&X&X&X&X+X&Xv o                                                     ",
"                                          . @ &X+X&X&X&X&X&X&Xz.8 q 3.|.XXXXXXXX^.q 0 p +X&X&X;X+X+X+X+Xf M o                                                   ",
"                                        . V o ;X&X&X&X&X=X&X=X=XA.0 q e 5.I.I.3.y q p `.&X&X&X&X+X+X+X+Xd W P                                                   ",
"                                        S R : OX+X+X&X&X&X&X&X=X=X}.z r y p p q a Z.=X&X&X&X;X+X+X+X+X+X4 R R -                                                 ",
"                                      & I R n (.+X+X;X&X&X&X&X&X=X=X=X=XH.v.U.&X=X=X=X&X&X&X+X+X+XOX+XOX; R R R o                                               ",
"                                    . J I I H F.+X+X+X+X&X&X&X&X=X=X=X=X=X=X=X=X=X=X&X&X&X&X+X+X+X+X+X  1 T Q T J o                                             ",
"                                  . H Y Q I T c.OX+X+X+X+X&X&X&X=X=X=X=X=X=X=X=X=X&X&X&X+X+X+X+XOXOXOX/.M W R I R ,                                             ",
"                                  2 I Y I U T c +X@XOX+X+X+X&X&X=X=X=X=X=X=X=X=X=X=X&X&X&X+X+XOX+XOXOX/.Z T T R R I o                                           ",
"                                X Y Y U R R R h OXOXOX+X+X+X&X&X&X&X=X=X=X=X=X=X=X=X&X&X;X+X+X+XOX`.OX_.A E T R R R U .                                         ",
"                              . H Y Y Y U R T < `.`.OX+X+X+X+X&X=X=X=X=X=X=X=X=X&X&X&X+X+X+XOXOXOX`.`.(.K L T R R Q Y &                                         ",
"                              S Y Y I U R T L Z (.`.OXOX+X+X&X&X&X=X=X=X=X=X=X=X=X&X&X&X+X+XOXOXOX`.`.F.L L P T R R Y R .                                       ",
"                            * Y Y Y I U T T L K D.`.OXOXOX+X+X;X&X&X=X&X=X=X=X=X&X&X&X+X+X+XOXOX`.`.`.c.L L E T R R R R J                                       ",
"                          X J Y Y I R T T L L L x.`.OXOX@X+X#X;X&X&X=X=X=X=X=X=X&X&X&X+X+X+XOXOX`.`._.:./ L E L T R R Y Q &                                     ",
"                          2 Y Y I R R T E L L / =.`.`.`.@X@X+X&X&X&X&X=X=X=X=X&X&X&X&X&X+XOXOXOX`.`._.-./ L L E E T W R R U .                                   ",
"                        . I I R T T W E L / / / F '.OXOX@X+X;X&X&X&X=X=X=X&X=X=X=X&X&X&X+X+XOXOX`.`._.G / / L L E E E W R R -                                   ",
"                      . C R R R W E L E L / ( ( 4 S.`.OXOX+X;X;X&X&X&X=X&X=X=X=X&X&X&X;X+X+XOXOX`.`./.m / L L L L E E W E W T o                                 ",
"                      & R T T W ' E E / / / ( D $ $ f b._.+X;X;X&X&X=X*X=X=X=X=X=X=X&X#X;X@X@XOXOX`.# = ' E E E E E E E E E W ,                                 ",
"                    . K R W W E E E / / G 6 +   Q.W.K.e.i g :.!.;X&X&X=X=X=X=X=X=X=X&X&X@X[.L.b.c # O O = B P W E E E E E W E E O                               ",
"                    n R W E E L E ^ N O           R.R.f.u.y.7.i 5 g :.D./..X@X_.F.c.l u 3 i &.e.K.          o - P T T E E W W E M                               ",
"                    Z R W E K N > O               R.R.p.u.u.p.h.R.T.a.0.;.&.*.;.q.a.l.u.8.8.u.h.R.R.            . = 1 A T W R W A                               ",
"                    o M M O                     R.Q.j.u.w.y.f.T.R.R.Q.T.i.w.9.p.R.Q.T.g.w.9.8.i.T.E.r.                  o < S ; o                               ",
"                                                E.Q.g.y.w.i.j.W.T.R.R.g.u.y.y.i.R.Q.T.T.p.w.8.y.h.Q.R.                                                          ",
"                                              1.E.T.i.y.y.f.E.Q.T.W.W.g.i.y.y.p.T.Q.E.R.h.p.y.u.f.R.E.r.                                                        ",
"                                              t.W.h.w.8.9.h.W.E.R.W.Q.T.u.9.u.f.W.W.R.R.R.h.i.i.f.T.W.t.                                                        ",
"                                              k.Q.T.u.9.9.j.W.R.R.E.Q.R.u.8.y.f.R.W.R.R.Q.R.f.f.j.W.Q.T.                                                        ",
"                                              R.Q.W.j.p.p.R.R.    R.W.T.u.y.y.p.j.R.  R.W.W.R.R.Q.Q.Q.T.                                                        ",
"                                              R.Q.W.T.h.T.R.        R.R.f.i.f.j.R.      R.R.W.Q.Q.Q.Q.R.                                                        ",
"                                              R.Q.Q.W.K.R.          R.R.T.j.T.R.d.          R.R.R.W.E.s.                                                        ",
"                                              R.Q.W.W.R.              R.W.W.W.R.                d.s.r.                                                          ",
"                                              s.R.R.                    R.R.R.                                                                                  ",
"                                                                                                                                                                ",
"                                                                                                                                                                ",
"                                                                                                                                                                ",
"                                                                                                                                                                ",
"                                                                                                                                                                ",
"                                                                                                                                                                "
};
