/* XPM */
static char *b58bc20140e74d579b5213aa2a6e82ce3LBxZ2xASByuwWax[] = {
/* columns rows colors chars-per-pixel */
"80 80 197 2 ",
"   c None",
".  c #020101",
"X  c #0B0701",
"o  c #0D0900",
"O  c #0B0B0B",
"+  c #130E01",
"@  c #151102",
"#  c #1C1401",
"$  c #1A1507",
"%  c #111111",
"&  c #191919",
"*  c #231B05",
"=  c #271D07",
"-  c #241F13",
";  c #292105",
":  c #2C220A",
">  c #322504",
",  c #3B2C05",
"<  c #32260A",
"1  c #3E2F0B",
"2  c #362A0F",
"3  c #282319",
"4  c #392F15",
"5  c #3E3318",
"6  c #2C2C2C",
"7  c #242322",
"8  c #302F2D",
"9  c #3A3428",
"0  c #333333",
"q  c #3D3B35",
"w  c #463409",
"e  c #4C3908",
"r  c #413311",
"t  c #483C1B",
"y  c #433B29",
"u  c #5B440E",
"i  c #5D4306",
"p  c #58481F",
"a  c #584514",
"s  c #634A0E",
"d  c #674D0B",
"f  c #6D520D",
"g  c #6F5007",
"h  c #73560E",
"j  c #76590F",
"k  c #7B5C0D",
"l  c #664E11",
"z  c #694F11",
"x  c #624E1C",
"c  c #675012",
"v  c #6C5211",
"b  c #6F571F",
"n  c #725611",
"m  c #755912",
"M  c #7A5C13",
"N  c #7A5E1B",
"B  c #735819",
"V  c #7F600E",
"C  c #7E6114",
"Z  c #7D611A",
"A  c #564A2C",
"S  c #5D4E2C",
"D  c #53472D",
"F  c #474136",
"G  c #554E3B",
"H  c #524832",
"J  c #5C533D",
"K  c #63583C",
"L  c #6E5E39",
"P  c #776024",
"I  c #7C6222",
"U  c #6D603E",
"Y  c #7C693B",
"T  c #685C41",
"R  c #805F0D",
"E  c #805E10",
"W  c #84620D",
"Q  c #8A660C",
"!  c #8E6B0E",
"~  c #936D0E",
"^  c #96700E",
"/  c #99720E",
"(  c #856616",
")  c #896713",
"_  c #876916",
"`  c #8C6A14",
"'  c #84661A",
"]  c #886718",
"[  c #86691D",
"{  c #8B6B1A",
"}  c #926E12",
"|  c #916F19",
" . c #8F701C",
".. c #957012",
"X. c #997311",
"o. c #94721C",
"O. c #9A761C",
"+. c #9D7A1D",
"@. c #A27D1E",
"#. c #846722",
"$. c #866A20",
"%. c #8B6D21",
"&. c #8B6F2C",
"*. c #8E7123",
"=. c #8E7128",
"-. c #937424",
";. c #997724",
":. c #9C7B25",
">. c #977928",
",. c #9C7C29",
"<. c #95782A",
"1. c #957A33",
"2. c #A27E24",
"3. c #A17F2A",
"4. c #8A784C",
"5. c #917E4B",
"6. c #AC831F",
"7. c #A7821F",
"8. c #A58124",
"9. c #AC8523",
"0. c #AE8826",
"q. c #A4822A",
"w. c #AA862A",
"e. c #AE892A",
"r. c #B18722",
"t. c #B28A25",
"y. c #B38C2B",
"u. c #B88F2C",
"i. c #B7902E",
"p. c #B9912E",
"a. c #A68533",
"s. c #A88732",
"d. c #AC8A35",
"f. c #AB8B3B",
"g. c #A5873D",
"h. c #B58F31",
"j. c #B18F3B",
"k. c #B79031",
"l. c #BB9433",
"z. c #BE9837",
"x. c #B1913F",
"c. c #BC9639",
"v. c #BE983A",
"b. c #C29C3C",
"n. c #C09937",
"m. c #9C854A",
"M. c #AB8D44",
"N. c #A38845",
"B. c #AD9047",
"V. c #B39341",
"C. c #B79749",
"Z. c #BB9C4D",
"A. c #AA9254",
"S. c #BE9F53",
"D. c #B59954",
"F. c #BEA053",
"G. c #BFA258",
"H. c #C49E41",
"J. c #C6A143",
"K. c #C9A345",
"L. c #CCA64A",
"P. c #CEA94D",
"I. c #D1AB4E",
"U. c #C2A355",
"Y. c #C2A45B",
"T. c #C6A85E",
"R. c #D2AE53",
"E. c #D5B156",
"W. c #D6B25A",
"Q. c #D9B55C",
"!. c #DBB85F",
"~. c #C7AA62",
"^. c #CAAD64",
"/. c #C8AD6A",
"(. c #CDB065",
"). c #CEB16A",
"_. c #DBB861",
"`. c #DDBA62",
"'. c #DDBB65",
"]. c #DFBB66",
"[. c #DEBB65",
"{. c #DFBD67",
"}. c #DEBC65",
"|. c #DEBA63",
" X c #D1B46D",
".X c #DFBD68",
"XX c #D7B562",
"oX c #D3B771",
"OX c #D5B973",
"+X c #D4B872",
"@X c #D6BA73",
"#X c #D6BA74",
"$X c #D5BA74",
"%X c #D5B973",
"&X c #E0BB67",
"*X c #E0BD66",
"=X c #E0BC68",
/* pixels */
"                                                                                                                                                                ",
"                                                                                                                                                                ",
"                                                                                                                                                                ",
"                                                                                                                                                                ",
"                                                                                                                                                                ",
"                                                                                                                                                                ",
"                                                                                                                                                                ",
"                                                                                                                                                                ",
"                                                                                                                                                                ",
"                                                                                                                                                                ",
"                                                                                                                                                                ",
"                                                                                                                                                                ",
"                                                                                                                                                                ",
"                                                                                                                                                                ",
"                                                                            6 D 1.S 7                                                                           ",
"                                                                  T 5.L K Y V.b.c.l.y.P y 3 & &                                             +X+X                ",
"                                                            G T A.Q.W.R.P.L.J.b.z.c.p.i.i.y.t.q.x - %                                 #X#X+X+X#X#X#X#X#X        ",
"                                                        J XX_.'.XXXXW.W.R.L.J.H.c.l.l.i.y.i.t.e.t.9.4 % %                     +X+X#X+X+X+X#X#X+X+X#X#X+X+X      ",
"                                                    0 J ^.[.'.'.'._.Q.W.R.P.K.H.c.c.l.i.y.y.t.t.0.9.7.v 4 = O             +X+X#X+X+X            #X+X#X+X+X      ",
"                                                q 4.D.}..X.X].].'._.!.W.^.P.K.H.c.l.i.i.i.t.e.0.0.6.8.2.+.+.c % O     +X#X+X                      #X#X#X#X      ",
"                                              0 A.'.'..X].].*X&X'.'.Q.W.R.P.K.b.c.l.l.i.y.t.0.0.9.7.@.+.:.O.o.o.v + #X#X                          +X#X#X+X      ",
"                                            F A.[.[.}.}.].*X&X&X'.!.!.W.R.P.K.C.c.l.i.y.y.e.e.0.8.2.+.:.;.o.o. .{ l O                             #X#X#X#X      ",
"                                          G `.`.[..X.X.X.X=X&X|.'._.Q.W.R.L.J.b.l.l.i.y.y.0.0.8.8.+.:.o.-.| %. .{ { ; .                         +X#X#X+X+X      ",
"                                        6 U.`.[.}..X.X.X].=X&X|.'.!.W.E.I.L.b.c.c.k.i.y.y.0.q.8.:.:.o.-.{ %.%.{ { { ( < .                       #X#X#X#X        ",
"                                      8 N.`.}.}.*X.X*X=X*X*X|.|.!.Q.W.R.P.J.v.v.c.i.y.y.e.q.8.:.:.;.-.-.%.$.#.' [ ] { _ ( #                   #X+X#X#X+X        ",
"                                    U U.!.!.`.*X*X*X*X*X*X*X&X!.!.W.E.I.K.H.v.c.k.y.y.e.0.q.8.:.;.-.%.%.%.$.#.' ' ] ) _ ` g .                 #X#X#X+X          ",
"                                  J U.!.!.*X|.*X*X*X*X}.*X!.!.!.Q.E.R.L.K.b.c.c.k.y.e.e.w.q.:.>.-.-.%.%.$.[ ' ' ' ' ( _ _ } @               +X#X#X+X#X          ",
"                                  m.R.!.!.|.|.|.*X|.}.|.*X!.!.Q.E.R.P.K.b.c.c.i.i.y.e.w.q.:.:.;.-.%.%.$.#.[ ' ' ' ( ( ) ` } h .             #X+X+X#X            ",
"                                H P.E.E.!.!.|.|.`.`.*X!.!.!.Q.E.R.P.K.H.c.l.l.i.y.e.w.q.2.:.-.-.%.%.%.[ ' Z #.' ' ] ( ) ` ` ~ g .         +X#X#X#X              ",
"                              y M.P.R.E.Q.Q.!.!.!.!.!.!.Q.Q.E.R.P.L.J.c.c.c.y.y.e.e.q.2.,.>.-.*.%.%.[ #.#.' ' ' Z ( ) ` } } ~ ~ g       #X#X#X+X                ",
"                              U K.P.I.E.E.W.Q.!.!.!.Q.Q.E.E.R.P.L.J.b.c.c.k.y.e.e.q.q.,.>.-.=.*.*.#.#.[ ' ' ' ' ( ( ) ` ! ! ~ ~ ~ .   #X+X#X#X#X                ",
"                            9 1.b.K.P.I.E.E.W.E.Q.E.E.E.R.I.P.K.H.b.c.l.h.y.h.w.q.q.,.>.>.-.*.*.[ #.[ [ ' ' Z ' ( ( ) ` ! ~ ~ ~ ~ < +X#X+X#X+X                  ",
"                            A n.b.b.L.I.I.I.R.R.R.I.R.I.I.L.K.b.b.l.l.h.h.y.w.q.q.>.>.>.-.*.*.$.$.[ Z [ ' ' Z ( _ _ ` ! ~ ~ ! ~ } N./.+X#X+X                    ",
"                            =.n.n.n.b.H.L.L.I.I.I.I.P.L.J.J.b.c.c.l.h.y.e.w.q.q.q.>.-.-.*.*.%.[ $.#.[ [ ' Z ] ( _ _ ` ! ! ~ ! ~ V.#X+X#X#X                      ",
"                          t p.p.n.n.n.b.b.b.H.H.b.K.J.b.b.b.z.c.l.h.e.d.e.q.q.,.q.-.-.*.*.*.[ $.Z [ [ Z ' ( ( ( ! ) ! ! ! ~ ~ d.#X#X+X#X                        ",
"                          A u.p.u.n.n.n.n.b.b.b.b.b.n.n.n.l.k.h.y.y.w.w.q.q.,.>.>.*.*.*.[ $.#.[ [ [ ' ' ( ( ) ) ) ! ! ! ! ~ q. X#X+X/.S                         ",
"                          -.y.u.u.u.p.n.n.p.n.n.n.n.p.p.i.i.y.e.e.e.q.q.,.,.>.>.*.*.*.%.%.[ [ [ [ Z ( ( ( ( ) ! ~ ! ! ! ! s.).#X#X Xf..                         ",
"                        : t.y.t.u.u.u.t.u.u.u.p.u.u.h.h.y.0.w.e.w.2.3.,.,.>.-.-.*.*.[ %.$.[ [ ' ' ' ( _ ( _ ` ! ! ! ! ! j. X#X#X).s.W d                         ",
"                        4 t.t.t.t.u.u.t.y.u.h.y.y.y.y.0.w.w.q.q.3.3.,.,.>.<.-.%.*.%.$.$.[ Z Z ' ' ' ( _ ) ) ! ` ! ! ! x.).+X#X).q.Q W Q +                       ",
"                        t t.t.r.t.t.t.t.y.t.t.y.e.r.w.w.q.q.8.q.,.>.>.<.-.-.*.%.%.$.[ [ [ [ ' ' ( ( _ _ ! ) ! ! ! ! V.+X+X+X Xa.Q W W Q =                       ",
"                        a t.r.r.r.t.r.r.r.r.0.w.0.q.8.8.q.:.q.>.>.<.-.-.-.=.%.%.[ [ [ [ ' ' ' ( _ _ ` ) ` } ! ` ! V.#X+X#X).a.( W W R W ,                       ",
"                        n r.r.r.r.r.r.9.w.w.w.9.8.8.q.:.:.:.>.-.-.-.-.=.%.%.[ $.[ [ [ [ ' ' _ ( _ ) ` ! ~ ! ^ ..Z.+X#X+X Xa.W R R k R k ,                       ",
"                        ' 6.6.r.r.6.9.9.9.@.2.2.:.:.>.>.-.>.*.-.*.=.=.%.%.$.$.[ [ ' ] ' ( _ ( _ ) ` ` ~ ! ^ +.U.+X+X#X).d.W R R k k k k +                       ",
"                        | 9.6.9.6.6.@.9.2.2.2.:.;.:.-.-.-.*.*.*.%.%.%.{ %.$.[ [ ' ] ' ' _ _ _ ` ` ! } ! ~ q.T.+X+X#X^.,.W W R k k k k j .                       ",
"                        O.6.6.@.@.2.2.+.O.:.;.-.-.-.*.*.*.*.*.%.%.$.%.$.$.[ ] ' ] ] _ _ _ _ ` } ~ ! ~ } d.(.+X@X+XT.o.W W k k k j j j j .                       ",
"                        ) @.@.@.@.+.+.;.-.o.-.| *.*.*.{ %.%.%.$.$.%.$.[ [ [ ' ' ' ] _ _ ` ` ` ! } ^ ..d. X@X+X+XF.Q W W k k j k j j h j +                       ",
"                        N @.+.+.O.;.o.-.-.-.%.%.$.$.%.%.$.%.[ $.$.[ [ [ { [ ] _ _ _ ` ` ` ` ~ } ~ X.V.+X@X#X@XV.Q W W k k k j h h v f h ,                       ",
"                        n o.o.O.o.| o.*.{ %.%.{ *.$.$.$.$.[ #.[ [ [ [ { ] ] ] ] _ _ ` ..} } ~ ^ +.U.@X#X+X).d.W Q W k k j j n f h v v h @                       ",
"                        a o.o.o.o. .{ { %.$.$.%.[ $.$.$.[ [ [ [ ] [ { ] ] ] ` ` } } } } } ^ ^ q.~.+X#X+X^.q.` Q W R k k j h v v f v z w .                       ",
"                        : } | |  . .{ %.[ [ [ [ [ [ [ [ [ [ ' [ ] { ] ] ` ` | } } } } ~ ~ ..V. X+X+X+XU.,.Q W W k k k j h v v v z v f # .                       ",
"                        = | { | { { ] ] [ [ [ [ [ [ [ [ ] [ { { ] { ` ` | | } } } ~ } ^ +.U.+X@X#X+XZ.} Q Q W R k j j v f v c v z z z +                         ",
"                        = } { { { { [ { { [ [ [ ] [ ' ' ] _ _ { ` { | ` } } } ^ ~ ~ ~ w.(.@X@X@X#Xf.Q Q W W R k k j h f v z c z l z z @                         ",
"                          u ` { { { { { ] [ [ ] [ ' ] ] { _ { ` | } } o.} ..^ ..~ ~ V.#X@X#X+X X3.Q Q W W k k k m n v v c l l l l l l ;                         ",
"                        #XO ( { ` { { { { { ] { _ _ { ` ` ` } { } ..X.~ ..^ ^ ^ +.F.+X#X#X@XT.o.Q Q W W k k j j f v v z z z l l l l u .                         ",
"                      #X#X. u ` { | ` ` { ` { ` _ { ` _ } } ......} ..^ ..^ X.x.^.#X#X+X XC.} Q W W k k k j h n v v z l l l l l l l #                           ",
"                      #X#X  e } } | } | | } ` } ` ..} ..} } ....^ X./ ~ ^ :.H.+X#X#X#X^.3.W W W W V k M m j v v v c l l l l l l l s .                           ",
"                    +X#X    1 o.....o...` ..} } } } ~ } ^ ....X./ ^ ^ ^ d.(.@X@X#X+XS.o.W W E R k k j h n n v v z z v l x l l l l u .                           ",
"                  #X#X        W X.X.X.X.^ o...} } ^ ....../ ~ X.} ^ O.Z. X@X#X#X^.d.) W R ) R k k j n n v v c z v z l l l l z s c #                             ",
"                #X+X          # X.X./ / / ../ ../ X.^ ^ ^ ^ ^ ~ X.j.~.#X+X+X+XU.;.W W R R k k j m m n n v z v z l l z z z z v c , .                             ",
"              +X+X#X            i X./ / / / / / / ^ ^ ^ ^ ~ ..q.^.+X+X#X+X^.d.) ( W M k M j j n h n v v v z c c c c z v n n B m X                               ",
"            +X#X+X              . h / / / / ^ ^ ~ ^ ^ ~ ! :.C.#X#X#X@X+XY.,.E E M k M j j n n g z n z z v z z z z z v n n B N E .                               ",
"            +X#X                  X ^ / ^ ^ / ^ ^ ~ ! ` f.^.+X#X#X+X^.f.' M M M M j M j n n f v z z v z z z z z z v n N N #.N <                                 ",
"          #X#X+X                  . d / ^ / ^ ~ ~ ` q.Y.oX+X#X#X#XM.%.M k M M k n n n n f n v v v z z v c v c v v B M N $.N X                                   ",
"          +X#X                      > / ^ ^ ~ ..:.~. X#X#X#XoX^.%.M M j m m n m n n n n n z v z z v v z c z v v m N #.$.%.*                                     ",
"        #X#X#X                        > ~ ~ s.Z.@X#X+X+X+X~.g.M m M m m h n n n v n v v v v c c f c v c f v n M Z [ %.-.#..                                     ",
"      +X+X#X+X                          S U.+X@X#X#X+X).B.%.j B m m m v m v v n v n n v v c f c f v c c v m M N $.%.#.r +                                       ",
"      #X#X#X                          +X@X+X@X+X+X).D.<.M m m B m m B n v v n v v v v v n v v v c v h n M N #.%.-.P X .                                         ",
"      #X+X#X+X                  @X@X@X#X+X+X+X).S.-.' M M m m m B m v v n v v n v v v v v v v v v n m M ' [ *.-.%.. .                                           ",
"      +X#X#X+X+X        +X+X+X#X@X#X#X#X#X+X+Xy > s M M m m m n n n n v v n v v n v v n n v v m N M ' [ %.-.;.I .                                               ",
"    +X#X#X#X+X@X#X+X#X+X#X+X+X#X#X+X@X+X#X      . . + s m m m n n n n n n n n n v n n m n C M ' ' [ %.-.;.,.#..                                                 ",
"      #X#X#X#X#X#X#X#X#X#X#X#X+X+X#X                . . z B m m m m n m n n v n m h m C C ' ' { *.;.,.=.r o .                                                   ",
"      +X+X#X#X+X#X#X#X#X+X@X#X+X                        # n j m m m m m n j j j C C Z [ { *.>.>.3.3.b . .                                                       ",
"        #X+X#X+X#X+X#X#X#X                                  # ; s M M M M M M ( ( ] | -.>.,.3.3.%.: .                                                           ",
"                                                                  * > > ; > w M ] r . . . : 2 +                                                                 ",
"                                                                              . .                                                                               ",
"                                                                                                                                                                ",
"                                                                                                                                                                ",
"                                                                                                                                                                ",
"                                                                                                                                                                ",
"                                                                                                                                                                "
};
