/* XPM */
static char *_9835967ee9147e6b8224f57ccb2c98fiulujMBvfgd7tmBV[] = {
/* columns rows colors chars-per-pixel */
"80 80 245 2 ",
"   c None",
".  c #0D0018",
"X  c #11001D",
"o  c #120020",
"O  c #130021",
"+  c #150025",
"@  c #170026",
"#  c #160027",
"$  c #170027",
"%  c #180028",
"&  c #180029",
"*  c #19002A",
"=  c #18002B",
"-  c #19002B",
";  c #19002C",
":  c #19002D",
">  c #1A002C",
",  c #1A002D",
"<  c #1B002D",
"1  c #1A002E",
"2  c #1B002E",
"3  c #1B002F",
"4  c #1C002F",
"5  c #1B0030",
"6  c #1B0032",
"7  c #1C0030",
"8  c #1C0031",
"9  c #1D0031",
"0  c #1C0032",
"q  c #1D0032",
"w  c #1D0033",
"e  c #1E0032",
"r  c #1E0033",
"t  c #1C0034",
"y  c #1D0034",
"u  c #1E0034",
"i  c #1F0034",
"p  c #1E0035",
"a  c #1F0035",
"s  c #1E0036",
"d  c #1F0036",
"f  c #1E0037",
"g  c #1F0037",
"h  c #1F0039",
"j  c #200035",
"k  c #200036",
"l  c #200037",
"z  c #210037",
"x  c #200038",
"c  c #210038",
"v  c #200039",
"b  c #210039",
"n  c #220039",
"m  c #21003A",
"M  c #21003B",
"N  c #22003A",
"B  c #22003B",
"V  c #23003B",
"C  c #21003C",
"Z  c #22003C",
"A  c #23003C",
"S  c #23003D",
"D  c #22003E",
"F  c #23003E",
"G  c #23003F",
"H  c #24003C",
"J  c #24003D",
"K  c #25003D",
"L  c #24003E",
"P  c #25003E",
"I  c #24003F",
"U  c #25003F",
"Y  c #26003F",
"T  c #240040",
"R  c #250040",
"E  c #240041",
"W  c #250041",
"Q  c #260040",
"!  c #260041",
"~  c #270041",
"^  c #250042",
"/  c #260042",
"(  c #270042",
")  c #260043",
"_  c #270043",
"`  c #260044",
"'  c #270044",
"]  c #270045",
"[  c #270046",
"{  c #280042",
"}  c #280043",
"|  c #280044",
" . c #290044",
".. c #280045",
"X. c #290045",
"o. c #2A0045",
"O. c #280046",
"+. c #290046",
"@. c #280047",
"#. c #290047",
"$. c #2A0046",
"%. c #2A0047",
"&. c #2B0047",
"*. c #280048",
"=. c #290048",
"-. c #290049",
";. c #2A0048",
":. c #2B0048",
">. c #2A0049",
",. c #2B0049",
"<. c #2A004A",
"1. c #2B004A",
"2. c #2A004B",
"3. c #2B004B",
"4. c #2C0049",
"5. c #2C004A",
"6. c #2C004B",
"7. c #2D004B",
"8. c #2B004C",
"9. c #2B004D",
"0. c #2C004C",
"q. c #2D004C",
"w. c #2C004D",
"e. c #2D004D",
"r. c #2E004C",
"t. c #2E004D",
"y. c #2C004E",
"u. c #2D004E",
"i. c #2C004F",
"p. c #2D004F",
"a. c #2E004E",
"s. c #2F004E",
"d. c #2E004F",
"f. c #2F004F",
"g. c #30004F",
"h. c #2D0050",
"j. c #2E0050",
"k. c #2F0050",
"l. c #2E0051",
"z. c #2F0051",
"x. c #2E0052",
"c. c #2F0052",
"v. c #2E0053",
"b. c #2F0053",
"n. c #2E0054",
"m. c #2F0054",
"M. c #300050",
"N. c #300051",
"B. c #310051",
"V. c #300052",
"C. c #310052",
"Z. c #300053",
"A. c #310053",
"S. c #320053",
"D. c #300054",
"F. c #310054",
"G. c #300055",
"H. c #310055",
"J. c #320054",
"K. c #320055",
"L. c #330055",
"P. c #300056",
"I. c #310056",
"U. c #310057",
"Y. c #320056",
"T. c #330056",
"R. c #320057",
"E. c #330057",
"W. c #340057",
"Q. c #320058",
"!. c #330058",
"~. c #320059",
"^. c #330059",
"/. c #33005A",
"(. c #33005B",
"). c #340058",
"_. c #340059",
"`. c #350059",
"'. c #34005A",
"]. c #35005A",
"[. c #34005B",
"{. c #35005B",
"}. c #36005B",
"|. c #34005C",
" X c #35005C",
".X c #35005D",
"XX c #36005C",
"oX c #36005D",
"OX c #37005D",
"+X c #35005E",
"@X c #36005E",
"#X c #37005E",
"$X c #36005F",
"%X c #37005F",
"&X c #38005F",
"*X c #370060",
"=X c #370061",
"-X c #380060",
";X c #390060",
":X c #380061",
">X c #390061",
",X c #380062",
"<X c #390062",
"1X c #380063",
"2X c #390063",
"3X c #3A0062",
"4X c #3A0063",
"5X c #3B0063",
"6X c #390064",
"7X c #3A0064",
"8X c #3B0064",
"9X c #3A0065",
"0X c #3B0065",
"qX c #3B0066",
"wX c #3C0065",
"eX c #3C0066",
"rX c #3C0067",
"tX c #3D0067",
"yX c #3C0068",
"uX c #3D0068",
"iX c #3C0069",
"pX c #3D0069",
"aX c #3E0068",
"sX c #3E0069",
"dX c #3D006A",
"fX c #3E006A",
"gX c #3E006B",
"hX c #3F006B",
"jX c #3F006C",
"kX c #3F006D",
"lX c #40006C",
"zX c #40006E",
"xX c #41006E",
"cX c #40006F",
"vX c #41006F",
"bX c #410070",
"nX c #420070",
"mX c #420071",
"MX c #430071",
"NX c #420072",
"BX c #430072",
"VX c #430073",
"CX c #440073",
"ZX c #440074",
"AX c #450075",
/* pixels */
"                                                                                                                                                                ",
"                                                                                                                                                                ",
"                                                                                                                                                                ",
"                                                                                                                                        ZXZX                    ",
"                                                                                                                                      ZXCXCXdX                  ",
"                                                                                    q q q                                               ZXCXeX].                ",
"          ].oXoX8X8X8X                                                              q q q 4                                             CXVXeX].                ",
"        V.V.E.oXoXoX&X>X>X>X                                                          b q p 4                                           ZXzXeX].                ",
"          z.E.].oXoX>X>XoX&X>X>X>XyX8X                                                _ Z k k ,                                         ZXVXdX&Xq.              ",
"            ].oX>X8X>X>X>X>X*XoX*X8X8X8XdX                                              } H k q -                                       CXVXeX&XV.              ",
"              lXjXeXeXeX8X8X8X8X*X1X8X>X>X8X>X                                          @.H k k 4 @                                     CXVXdX&XV.              ",
"              CXVXVXVXzXjXyXyX8XyX8X8X*X8X*X*X*X>X                                        _ H b q ,                                     CXVXdX&XE.              ",
"                ZXCXVXVXjXjXyX8X8XyX8X8X8X>X*X>X>X>XoX                                    @._ Z b b b                                 VXzXzXdX&XV.              ",
"                  ZXCXVXjXjXdXyXeXdX8X8X>XoX>X*X&XoXoX*X                                  5.@.[ _ H H                                 dXzXdXeXoXq.              ",
"                      VXzXjXdXdXdXdX8X8X>X*X>X>X>X>X*XoX&XoX                              q.:.:.} } @.q.                            &XeXdXeX>X].q.              ",
"                          dXyXdXdXyX8X>X8X>X>X>X>X>XoX>XoX].oX                            5.5.:.5.@.@.q.                            >XeXeX5X].E.                ",
"                            VXjXVXdXeX>XoX>X>X8X>X*X*XoXoXoXoXoXoX                        [ :.:.5.@.:.q.                            8XeX>X>XE.5.                ",
"                                VXVXdX8X>XoX>X>X1X*X*X>XoXoX].].~.oX].                    [ *.8.5.5.@.q.oX                        eX8XeX8XoXE.@.                ",
"                                  VXeXeX8X8X8X*X8X8X8X1X>X*XoXoX~.].].oX                  @.:.*.q.:.5.q.oXlX                      >XeXeX8XoXE._                 ",
"                                      >X>X8X8XyX>X1X8X8X>X>X*XoX].].E.~.E.E.              @.:.:.8.q.5.V.].zX                    &X>XeXeX8X*Xq._                 ",
"                                          8X8X8X8XyX8X8X8X8X8X*XoXoX].].E.E.E.E.        :.:.8.:.q.:.8.z.oXzX                  E.&XeXdXeXeXoXz.                  ",
"                                            zX8X8X8XyX8X8X1X>X>XoXoXoX].].~.V.V.E.g.V.z.q.8.z.8.q.q.q.z.].lXCX              _ E.>XdXlXdXeXoXV.                  ",
"                                              dX8X*X8XyX8X1X1X*X*XoXoXoXoX~.].E.z.E.E.z.8.q.z.z.q.8.q.q.].dXCX            p 5.].>XlXzXdXdXoXz.                  ",
"                                                jX8X*X1X8XyX8X*X*XoXoXoX*XoX].~.E.m.E.E.z.z.E.z.z.z.q.E.oXdXVX            _ z.>XlXdXlXjXeXoXz.                  ",
"                                                  jX>X8X*X8X8X8X*X*X*X*X*X>X*X*XoX~.E.E.E.m.E.E.z.z.q.z.].eXVX          H :.].8XdXlXlXdXeX&X                    ",
"                                                    oXoX>X*X*X1X8X>X*X1X>X*X*X*XoXoX~.~.E.~.~.~.E.V.z.E.oXdXVX        p @.E.>XdXdXlXdXeX>X].                    ",
"                                            8.  :.@.:.:.E.~.oX*X1X*X1X*X*X*X*XoX|.~.].~.~.~.].~.~.E.E.E.oXdXVX      b @.E.oX8XdXdXdXeX>XoXE.                    ",
"                                , , q p p b b b b p p h _ 8.~.oX>X8X8X*X*X*XoXoXoX|.oX~.].~.].~.~.~.].oX>XdXVX    _ _ q.].>XeXdXdXeX>X~.E.                      ",
"                        , - - , - , q q k b b p 5 , t p E :.E.|.*X*X>XoXoXoX~.~.~.].].].~.|.].~.].].oX&X8XjXkXjXV.[ q.~.&XeXdXeX>X>XoXE.z.                      ",
"                      @ - - , , , 5 q p p b p p p q 5 h Z :.m.~.oXoX*X].|.~.E.E.E.~.~.].oX].|.~.~.oX*X>X8XyXdX>Xq.q.~.oX8XdXdXeX>XoXE.:.                        ",
"                    O @ - , q q q q p k b b b h p p p b E 8.E.~.oXoX~.~.E.E.E.E.E.E.E.E.].~.].].~.oXoX>X8XyX8XoXV.E.oX8XeXdXeX>XoXz.8.q.                        ",
"                  . O @ - q q p k k b b Z b b b h b b E *.8.z.~.|.~.E.E.z.V.z.z.z.V.E.E.W.~.~.].~.~.oX*X>X8X>XoX].oX>X8XdXeX>X&X~.:.:.                          ",
"                  X @ 4 p b Z Z H Z Z Z Z Z Z Z E Z _ [ 8.8.z.~.E.E.m.z.z.q.8.5.5.5.5.g.q.V.E.E.E.E.~.oX*X*X*XoX*X8X8XyXyX1X|.~.q.[                             ",
"                  - - p Z Z } H Z H H Z Z Z _ [ [ [ :.8.z.z.E.~.m.z.z.8.:.:.@.:.&.@.@.&.@.5.q.V.q.z.E.~.oX*X>X1X8X8XyXyX8XoX~.z.[ :.                            ",
"                @ 5 p k _ Z H _ H Z b H _ [ *.8.q.m.z.z.m.E.m.m.m.E.8.:.&. .@.@.@.} } @.} } &.5.8.z.q.m.~.oX*X8X8X8XyX8XoXE.z.@.H                               ",
"              q 5 q k b Z Z _ H Z _ Z _ [ :.z.m.m.E.m.E.~.~.E.E.z.q.:.:.@. .@.} } } H H H H } } :.8.z.z.E.].*X>XyXyX8X*XE.g.@.Z                                 ",
"              q p p k b b Z Z Z Z Z H [ 8.z.m.m.E.~.~.].~.~.E.z.z.q.5.&.&.&.&.} } H H H b b Z H _ :.q.z.m.~.oX8X8X8X>X~.z.@.Z b                                 ",
"            h b b b b b Z Z k b b _ :.q.z.z.z.m.E.~.oX~.~.~.z.q.z.5.5.5.&.&.&.} H K H H K K b K _ @.8.q.z.E.].oX>X>XoXm.:.Z b                                   ",
"          b H b b Z H b b Z _     [ 8.8.8.q.z.E.~.~.~.~.~.m.z.z.z.q.5.5.5.} Y H b K k K b b b K H @.q.z.z.E.~.oX*X|.E.:.H b                                     ",
"          H H _ Z H H Z _         [ *.:.:.8.q.q.E.~.~.~.m.z.z.z.z.q.g.5.&.} K z k k k k b k b b H @.:.q.z.m.E.~.~.E.q.[ b p                                     ",
"          [ _ _ _ H [           :.:.*.:.:.8.8.z.m.E.~.m.z.z.q.V.V.q.g.5.} H z q q q j k b k b b H _ 8.q.z.z.z.E.z.z.[ Z p                       E.              ",
"        :.:.:.:.:.              _ [ *.:.:.8.8.z.E.m.E.z.h.8.8.z.z.V.g.q.} b k j q 4 q j k k b b _ @.q.q.z.z.z.z.h.:._ Z                     E.].E.V.            ",
"                              Z H [ :.*.*.:.:.h.m.E.E.m.8.8.:.z.V.V.V.5.} K k q 4 q q k k b K H _ [ 8.z.q.h.z.8.8.*._ Z                     oXoX~.].            ",
"                            Z H [ :.:.:.[ [ *.h.z.m.E.m.8.8.:.z.V.W.V.q.} K k j q j k k b b b H } :.q.z.q.8.q.8.:.*.E                   E.].oXoXoX8X            ",
"                            _ @.:.8.[ :.[ _ [ 8.m.E.E.z.8.:.:.z.V.L.g.g.} Y K k k k k b K H Y @.@.q.V.q.8.8.q.8.q.:.                    E.].&X>XeX              ",
"                          [ :.8.8.:.:.[ E Z [ q.m.m.m.z.z.8.8.8.V.L.L.5.&.} Y H b K K K H _ } @.5.V.q.q.8.q.8.z.8.@.                q.z.E.].oXdXdX              ",
"                        5.q.q.q.8.h.[ H Z Z H q.m.E.E.E.z.8.8.:.g.V.V.g.5.@.} Y Y _ H Y } @.5.g.z.z.q.8.8.q.z.z.q.                :.q.q.V.].>XjX                ",
"                        E.z.8.8.:.*.[ Z Z b _ 8.z.m.E.~.m.z.q.8.5.V.g.g.5.&.} } } H } @.@.5.g.g.z.q.q.:.8.8.q.z.              _ [ 8.q.q.].oX8XzX                ",
"                        ~.E.q.q.:.[ E Z b Z _ *.z.E.~.~.E.z.q.8.q.z.z.q.5.:.@.[ } } } 5.q.q.V.V.z.z.:.:.8.q.h.8.            _ _ :.8.z.E.~.>XzX                  ",
"                      8XoXV.h.:.[ E h b b Z _ :.h.~.oXoX~.E.z.8.q.q.z.q.q.:.5.:.&.&.5.5.z.V.E.V.q.q.:.:.8.h.8.:._     b _ Z _ @.:.z.E.].*XdX                    ",
"                      oXm.h.8.[ _ Z b b Z Z _ :.z.E.oXoXoXE.m.8.q.5.q.z.q.q.5.5.5.5.q.V.V.V.V.z.8.8.8.8.8.q.@._ E Z Z Z K } @.@.q.~.].>XdX                      ",
"                    8X].E.z.:.:._ H Z Z [ _ _ :.q.~.|.oX~.~.m.z.q.z.q.q.q.V.q.z.g.g.g.V.V.V.z.q.q.q.8.8.q.:.:.[ H E H _ _ @.5.5.E.oX8XzX                        ",
"                    oX~.z.q.:.[ H Z H [ [ _ [ 8.m.~.oXoX].E.m.z.z.z.z.8.z.8.8.:.5.5.q.q.8.q.8.8.q.z.z.h.8.8.[ [ _ H _ [ [ 5.q.E.oXeX                            ",
"                  *XE.z.8.:.[ [ _ Z _   _ H @.8.V.~.~.m.~.E.z.m.z.m.z.z.q.:.:.@.} } @.:.8.8.8.z.z.z.z.z.z.8.*.[ @.@.@.:.@.q.z.&XdX                              ",
"                  ].E.8.q.5.:.@._ _ @.  _ _ :.z.E.E.E.E.m.E.m.z.m.m.m.z.q.:.[ _ _ _ @.@.:.8.z.z.z.z.m.m.z.8.8.:.:.:.8.:.5.E.].                                  ",
"                  V.q.z.8.:._ _ _ _     _ Z :.z.E.m.z.E.m.~.z.m.~.~.m.z.8.:.[ H _ [ :.5.z.z.m.E.~.E.m.E.z.z.z.q.8.q.q.V.E.>X                                    ",
"                  z.q.z.q.8.:.[ _ :.    _ [ q.E.z.E.E.z.z.~.m.m.E.m.m.m.z.:.*.[ [ :.z.m.~.~.|.oX|.].~.~.~.E.z.E.E.E.oX                                          ",
"                  :.q.8.q.:.[ _ [       [ :.q.E.E.m.z.z.z.V.z.z.E.E.E.m.z.:.*.[ *.z.E.~.oXoX*XoXoXoX&X*XoXoXoX8X                                                ",
"                z.8.z.8.:.[ _ _         @.:.E.z.E.z.m.z.q.z.m.z.z.E.m.E.m.8.:.[ [ :.z.~.oXoX>X>XoX*X>X8XyX                                                      ",
"                q.z.8.z.:.[ _ _         @.5.z.E.E.E.z.z.8.q.  q.z.z.E.E.E.z.8.[ _ _ [ h.V.].oX                                                                  ",
"                q.m.q.z.:.*.[           :.q.z.E.E.E.z.z.8.q.    z.z.E.m.E.E.8.:.[ E Z Z _ @.                                                                    ",
"                q.z.E.z.8.:.:.          :.8.z.z.E.z.z.z.q.q.      q.z.m.E.z.z.z.:.[ E Z k p p p                                                                 ",
"                z.m.~.V.q.q.            q.8.z.z.V.m.m.E.z.E.        q.z.z.z.m.m.q.8.[ _ Z b p p , = ,                                                           ",
"                z.E.z.E.z.E.            8.q.z.E.z.E.m.E.V.E.          8.z.z.z.z.m.q.:.:._ _ Z b p p q p k                                                       ",
"                z.V.z.V.z.                z.z.V.z.E.m.E.z.E.            :.8.z.z.z.q.q.8.@.@.@._ _ _ [ Z [ :.:.[ @.@.                                            ",
"                  8.5.q.                  E.E.E.z.E.E.E.V.oX              q.q.q.8.q.z.z.z.8.:.8.[ _ :.:.q.V.z.z.V.V.W.V.V.E.z.8.                                ",
"                  q.8.q.                    E.~.E.E.z.E.E.].                  q.q.q.8.8.z.8.z.q.8.q.q.q.z.z.z.E.E.E.E.E.W.E.z.:.q.q.E.V.V.                      ",
"                  :.q.                      oX].~.E.z.m.V.].>X                    V.z.m.z.z.z.q.q.z.z.E.E.E.E.E.~.].oXoX].E.E.E.E.z.E.~.                        ",
"                                              E.E.m.z.z.E.~.8X                          *XoXoX|.].~.E.E.E.~.~.E.].oX>XoX>X*XoXoXoX>X>X                          ",
"                                              q.q.q.q.h.z.E.>X                                    8XoX&X|.oXoXoX>X>XeXeX8X8X8X8XeX                              ",
"                                                :.[ :.8.q.E.oX>X                                          lXdXdXzXlXjXdXdX8X8X8X                                ",
"                                                  Z [ :.q.V.].oX>X                                                  zXVX                                        ",
"                                                      _ :.q.m.].].oX                                                                                            ",
"                                                        Z @.q.z.E.].oX                                                                                          ",
"                                                        q H [ :.z.E.].                                                                                          ",
"                                                          p H @.:.E.].                                                                                          ",
"                                                              _ :.                                                                                              ",
"                                                                                                                                                                ",
"                                                                                                                                                                ",
"                                                                                                                                                                "
};
